#N canvas 0 38 1728 1051 12;
#X obj 1155 614 phasor~;
#X obj 1155 708 vcf~;
#X obj 1284 708 vline~;
#X obj 1156 746 *~;
#X obj 1148 464 bng 19 250 50 0 empty empty empty 0 -10 0 12 #fcfcfc #000000 #000000;
#X obj 1214 684 *~;
#X obj 1147 437 t b f f;
#X obj 1068 672 loadbang;
#X obj 1128 578 vline~;
#X obj 1136 487 t f f;
#X obj 1124 534 pack f f;
#X obj 1124 510 * 10;
#X msg 1068 696 1;
#X msg 1281 610 1 10 \, 0 3000 10;
#X obj 1136 329 mtof;
#X obj 990 259 bng 19 250 50 0 empty empty empty 0 -10 0 12 #fcfcfc #000000 #000000;
#X floatatom 1135 302 5 0 0 0 - - - 0;
#X obj 994 219 t b f;
#X obj 471 170 keyname;
#X obj 471 194 tgl 19 0 empty empty empty 0 -10 0 12 #fcfcfc #000000 #000000 0 1;
#X obj 471 218 sel 1;
#X msg 511 198 set \$1;
#X msg 516 224 Meta_L;
#X obj 516 248 symbol;
#X msg 898 191 60;
#X msg 927 191 61;
#X msg 956 191 62;
#X msg 986 191 63;
#X msg 1015 191 64;
#X msg 1044 191 65;
#X msg 1073 191 66;
#X msg 1103 191 67;
#X msg 1128 191 68;
#X msg 1157 191 69;
#X msg 1186 191 70;
#X msg 1216 191 71;
#X msg 1245 191 72;
#X msg 1274 191 73;
#X msg 1303 191 74;
#X obj 1134 277 +;
#X obj 1416 211 + 0;
#X floatatom 1416 235 5 0 0 0 - - - 0;
#X obj 1376 258 * 12;
#X msg 1416 187 -1;
#X msg 1461 186 1;
#X msg 1334 191 75;
#X msg 1363 191 76;
#X obj 626 55 t a;
#X obj 746 187 tgl 19 0 empty empty empty 0 -10 0 12 #fcfcfc #000000 #000000 0 1;
#X obj 682 221 spigot;
#X obj 682 251 spigot;
#X obj 746 227 tgl 19 0 empty empty empty 0 -10 0 12 #fcfcfc #000000 #000000 0 1;
#X obj 775 227 loadbang;
#X msg 775 251 1;
#X obj 626 -76 inlet;
#X obj 683 402 s \$0-indicator;
#X msg 683 372 color 16;
#X msg 756 370 color 0;
#X obj 741 297 t b f;
#X obj 741 321 &&;
#X obj 741 345 sel 1;
#X obj 1201 44 inlet;
#X floatatom 1205 80 5 0 0 0 - - - 0;
#X obj 101 101 cnv 18 98 18 empty \$0-indicator bass 3 10 0 12 #fcfcfc #404040 0;
#X msg 1122 556 \$1 \, \$2 30;
#X obj 1284 732 *~;
#X obj 1284 756 *~;
#X obj 1222 634 * 3;
#X obj 1494 19 inlet;
#X floatatom 1493 75 5 0 0 0 - - - 0;
#X msg 1507 45 0;
#X obj 623 90 sel ü;
#X obj 669 113 sel ä;
#X obj 1498 97 s \$0-instance;
#X obj 703 0 r \$0-instance;
#X obj 713 143 sel off holdon holdoff;
#X obj 699 38 t f f f;
#X msg 621 141 1;
#X msg 667 144 0;
#X msg 712 165 0;
#X msg 807 166 1;
#X obj 699 71 makefilename b%don;
#X obj 709 93 makefilename b%doff;
#X obj 1002 335 s \$0-indicator-num;
#X floatatom 163 101 5 0 0 0 - \$0-indicator-num \$0-indicator-num_out 0;
#X msg 771 167 0;
#X obj 1146 860 outlet~;
#X obj 1059 140 sel a w s e d f t g z h u j k o l p ö y x;
#X obj 1156 770 *~ 1.5;
#X obj 623 -25 list;
#X msg 623 -1 \$1;
#X obj 623 23 symbol;
#X connect 0 0 1 0;
#X connect 1 1 3 0;
#X connect 2 0 65 0;
#X connect 2 0 65 1;
#X connect 3 0 88 0;
#X connect 4 0 13 0;
#X connect 5 0 1 1;
#X connect 6 0 4 0;
#X connect 6 1 9 0;
#X connect 6 2 67 0;
#X connect 7 0 12 0;
#X connect 8 0 0 0;
#X connect 9 0 11 0;
#X connect 9 1 10 1;
#X connect 10 0 64 0;
#X connect 11 0 10 0;
#X connect 12 0 1 2;
#X connect 13 0 2 0;
#X connect 14 0 6 0;
#X connect 16 0 14 0;
#X connect 16 0 83 0;
#X connect 17 0 15 0;
#X connect 17 1 39 0;
#X connect 18 0 19 0;
#X connect 18 1 21 0;
#X connect 19 0 20 0;
#X connect 20 0 22 0;
#X connect 21 0 22 0;
#X connect 22 0 23 0;
#X connect 23 0 49 0;
#X connect 24 0 17 0;
#X connect 25 0 17 0;
#X connect 26 0 17 0;
#X connect 27 0 17 0;
#X connect 28 0 17 0;
#X connect 29 0 17 0;
#X connect 30 0 17 0;
#X connect 31 0 17 0;
#X connect 32 0 17 0;
#X connect 33 0 17 0;
#X connect 34 0 17 0;
#X connect 35 0 17 0;
#X connect 36 0 17 0;
#X connect 37 0 17 0;
#X connect 38 0 17 0;
#X connect 39 0 16 0;
#X connect 40 0 41 0;
#X connect 41 0 40 1;
#X connect 41 0 42 0;
#X connect 42 0 39 1;
#X connect 43 0 40 0;
#X connect 44 0 40 0;
#X connect 45 0 35 0;
#X connect 45 0 17 0;
#X connect 46 0 35 0;
#X connect 46 0 17 0;
#X connect 47 0 71 0;
#X connect 48 0 49 1;
#X connect 48 0 59 0;
#X connect 49 0 50 0;
#X connect 50 0 87 0;
#X connect 51 0 50 1;
#X connect 51 0 58 0;
#X connect 52 0 53 0;
#X connect 53 0 51 0;
#X connect 54 0 89 0;
#X connect 56 0 55 0;
#X connect 57 0 55 0;
#X connect 58 0 59 0;
#X connect 58 1 59 1;
#X connect 59 0 60 0;
#X connect 60 0 56 0;
#X connect 60 1 57 0;
#X connect 61 0 17 0;
#X connect 64 0 8 0;
#X connect 65 0 66 0;
#X connect 65 0 66 1;
#X connect 66 0 3 1;
#X connect 66 0 5 0;
#X connect 67 0 5 1;
#X connect 68 0 69 0;
#X connect 69 0 73 0;
#X connect 70 0 69 0;
#X connect 71 0 77 0;
#X connect 71 1 72 0;
#X connect 72 0 78 0;
#X connect 72 1 75 0;
#X connect 74 0 76 0;
#X connect 75 0 79 0;
#X connect 75 1 85 0;
#X connect 75 2 80 0;
#X connect 76 0 81 0;
#X connect 76 1 82 0;
#X connect 77 0 48 0;
#X connect 78 0 48 0;
#X connect 79 0 48 0;
#X connect 80 0 51 0;
#X connect 81 0 71 1;
#X connect 82 0 72 1;
#X connect 85 0 51 0;
#X connect 87 0 24 0;
#X connect 87 1 25 0;
#X connect 87 2 26 0;
#X connect 87 3 27 0;
#X connect 87 4 28 0;
#X connect 87 5 29 0;
#X connect 87 6 30 0;
#X connect 87 7 31 0;
#X connect 87 8 32 0;
#X connect 87 9 33 0;
#X connect 87 10 34 0;
#X connect 87 11 35 0;
#X connect 87 12 36 0;
#X connect 87 13 37 0;
#X connect 87 14 38 0;
#X connect 87 15 45 0;
#X connect 87 16 46 0;
#X connect 87 17 43 0;
#X connect 87 18 44 0;
#X connect 88 0 86 0;
#X connect 89 0 90 0;
#X connect 90 0 91 0;
#X connect 91 0 47 0;
#X coords 0 -1 1 1 100 20 1 100 100;
