#N canvas 229 146 1301 865 12;
#X obj 82 150 inlet~;
#X obj 642 59 inlet;
#X text 692 60 feed;
#X obj 1158 92 inlet;
#X text 1205 91 pulse;
#X obj 1202 328 timer;
#X floatatom 1202 354 7 0 0 0 - - - 0;
#X obj 1204 264 tgl 19 0 empty empty empty 0 -10 0 12 #fcfcfc #000000 #000000 0 1;
#X obj 1204 288 sel 0 1;
#X obj 1158 116 t a;
#X obj 82 174 *~ 1;
#X obj 1202 377 *;
#X floatatom 1232 380 5 0 0 1 factor \$0-factor - 0;
#X obj 127 241 delwrite~ \$0-delay_l 1000;
#X obj 537 712 s \$0-factor;
#X obj 146 266 r \$0-delay_len;
#X obj 1204 508 s \$0-delay_len;
#X obj 102 387 *~;
#X obj 133 387 r \$0-wet;
#X obj 792 760 s \$0-wet;
#X obj 643 630 loadbang;
#X msg 754 706 0;
#X msg 561 687 3;
#X obj 793 738 clip 0 1;
#X obj 332 150 inlet~;
#X obj 332 174 *~ 1;
#X obj 396 266 r \$0-delay_len;
#X obj 352 387 *~;
#X obj 383 387 r \$0-wet;
#X obj 377 241 delwrite~ \$0-delay_r 1000;
#X obj 759 264 tgl 19 0 empty empty empty 0 -10 0 12 #fcfcfc #000000 #000000 0 1;
#X obj 695 298 spigot;
#X msg 639 220 1;
#X msg 686 220 0;
#X obj 693 265 key;
#X floatatom 655 280 5 0 0 0 - - - 0;
#X obj 695 328 spigot;
#X obj 759 304 tgl 19 0 empty empty empty 0 -10 0 12 #fcfcfc #000000 #000000 0 1;
#X obj 788 304 loadbang;
#X msg 788 328 1;
#X msg 793 221 0;
#X msg 841 221 1;
#X msg 726 220 0;
#X obj 859 261 list trim;
#X obj 639 102 t a a, f 42;
#X obj 859 342 list;
#X floatatom 859 391 5 0 0 0 - - - 0;
#X obj 859 366 float;
#X obj 639 124 list;
#X msg 639 148 \$1;
#X obj 639 172 symbol;
#X obj 859 287 route del;
#X obj 639 196 sel delon deloff off holdon holdoff;
#X obj 332 440 clip~ -0.9 0.9;
#X obj 82 440 clip~ -0.9 0.9;
#X obj 82 464 outlet~;
#X obj 332 464 outlet~;
#X obj 169 212 *~ 0;
#X obj 419 212 *~ 0;
#X obj 211 212 r \$0-wet2;
#X obj 461 212 r \$0-wet2;
#X obj 967 738 clip 0 1;
#X obj 966 760 s \$0-wet2;
#X obj 545 396 sel 49 50 51 52 53 54 55 56 57;
#X msg 545 420 0;
#X msg 555 441 1;
#X msg 565 462 2;
#X msg 585 420 3;
#X msg 595 441 4;
#X msg 605 462 5;
#X msg 625 420 6;
#X msg 635 441 7;
#X msg 645 462 8;
#X floatatom 611 534 5 0 0 0 - - - 0;
#X msg 753 480 0;
#X msg 763 510 0.2;
#X msg 793 480 0.4;
#X msg 803 510 0.6;
#X msg 833 480 0.8;
#X msg 843 510 1;
#X floatatom 760 548 5 0 0 0 - - - 0;
#X obj 859 314 route fac wet wet2;
#X obj 899 342 list;
#X floatatom 899 391 5 0 0 0 - - - 0;
#X obj 899 366 float;
#X obj 939 342 list;
#X floatatom 939 391 5 0 0 0 - - - 0;
#X obj 939 366 float;
#X msg 943 520 0;
#X msg 953 550 0.2;
#X msg 983 520 0.4;
#X msg 993 550 0.6;
#X obj 942 486 sel 97 115 100 102 103 104;
#X floatatom 950 588 5 0 0 0 - - - 0;
#X obj 752 446 sel 113 119 101 114 116 122;
#X obj 101 101 cnv 18 98 18 empty \$0-indicator delayer 3 10 0 12 #fcfcfc #404040 0;
#X obj 382 625 s \$0-indicator;
#X msg 382 595 color 16;
#X msg 455 593 color 0;
#X obj 440 520 t b f;
#X obj 440 544 &&;
#X obj 440 568 sel 1;
#X obj 1173 383 bng 19 250 50 0 empty empty empty 0 -10 0 12 #fcfcfc #000000 #000000;
#X msg 1192 233 bang;
#X obj 127 291 delread4~ \$0-delay_l 0;
#X obj 377 291 delread4~ \$0-delay_r 0;
#X obj 1201 420 change;
#X obj 1160 428 bng 19 250 50 0 empty empty empty 0 -10 0 12 #fcfcfc #000000 #000000;
#X obj 1202 475 line 0;
#X msg 950 611 \$1 100;
#X obj 950 635 line 10;
#X msg 764 576 \$1 100;
#X obj 764 600 line 10;
#X msg 1023 520 0.8;
#X msg 1033 550 0.9;
#X msg 1202 451 \$1 3000;
#X obj 1117 374 * 0.02;
#X connect 0 0 10 0;
#X connect 1 0 44 0;
#X connect 3 0 9 0;
#X connect 5 0 6 0;
#X connect 6 0 11 0;
#X connect 6 0 102 0;
#X connect 6 0 116 0;
#X connect 7 0 8 0;
#X connect 8 0 5 0;
#X connect 8 1 5 1;
#X connect 9 0 103 0;
#X connect 10 0 13 0;
#X connect 10 0 54 0;
#X connect 11 0 106 0;
#X connect 12 0 11 1;
#X connect 15 0 104 0;
#X connect 17 0 54 0;
#X connect 17 0 58 0;
#X connect 18 0 17 1;
#X connect 20 0 21 0;
#X connect 20 0 22 0;
#X connect 21 0 23 0;
#X connect 21 0 61 0;
#X connect 22 0 14 0;
#X connect 23 0 19 0;
#X connect 24 0 25 0;
#X connect 25 0 29 0;
#X connect 25 0 53 0;
#X connect 26 0 105 0;
#X connect 27 0 53 0;
#X connect 27 0 57 0;
#X connect 28 0 27 1;
#X connect 30 0 31 1;
#X connect 30 0 99 0;
#X connect 31 0 36 0;
#X connect 32 0 30 0;
#X connect 33 0 30 0;
#X connect 34 0 31 0;
#X connect 34 0 35 0;
#X connect 36 0 63 0;
#X connect 37 0 36 1;
#X connect 37 0 100 0;
#X connect 38 0 39 0;
#X connect 39 0 37 0;
#X connect 40 0 37 0;
#X connect 41 0 37 0;
#X connect 42 0 30 0;
#X connect 43 0 51 0;
#X connect 44 0 48 0;
#X connect 44 1 43 0;
#X connect 45 0 47 0;
#X connect 47 0 46 0;
#X connect 48 0 49 0;
#X connect 49 0 50 0;
#X connect 50 0 52 0;
#X connect 51 0 81 0;
#X connect 52 0 32 0;
#X connect 52 1 33 0;
#X connect 52 2 42 0;
#X connect 52 3 40 0;
#X connect 52 4 41 0;
#X connect 53 0 56 0;
#X connect 54 0 55 0;
#X connect 57 0 13 0;
#X connect 58 0 29 0;
#X connect 59 0 57 1;
#X connect 60 0 58 1;
#X connect 61 0 62 0;
#X connect 63 0 64 0;
#X connect 63 1 65 0;
#X connect 63 2 66 0;
#X connect 63 3 67 0;
#X connect 63 4 68 0;
#X connect 63 5 69 0;
#X connect 63 6 70 0;
#X connect 63 7 71 0;
#X connect 63 8 72 0;
#X connect 63 9 94 0;
#X connect 64 0 73 0;
#X connect 65 0 73 0;
#X connect 66 0 73 0;
#X connect 67 0 73 0;
#X connect 68 0 73 0;
#X connect 69 0 73 0;
#X connect 70 0 73 0;
#X connect 71 0 73 0;
#X connect 72 0 73 0;
#X connect 73 0 14 0;
#X connect 74 0 80 0;
#X connect 75 0 80 0;
#X connect 76 0 80 0;
#X connect 77 0 80 0;
#X connect 78 0 80 0;
#X connect 79 0 80 0;
#X connect 80 0 111 0;
#X connect 81 0 45 0;
#X connect 81 1 82 0;
#X connect 81 2 85 0;
#X connect 82 0 84 0;
#X connect 83 0 80 0;
#X connect 84 0 83 0;
#X connect 85 0 87 0;
#X connect 87 0 86 0;
#X connect 88 0 93 0;
#X connect 89 0 93 0;
#X connect 90 0 93 0;
#X connect 91 0 93 0;
#X connect 92 0 88 0;
#X connect 92 1 89 0;
#X connect 92 2 90 0;
#X connect 92 3 91 0;
#X connect 92 4 113 0;
#X connect 92 5 114 0;
#X connect 93 0 109 0;
#X connect 94 0 74 0;
#X connect 94 1 75 0;
#X connect 94 2 76 0;
#X connect 94 3 77 0;
#X connect 94 4 78 0;
#X connect 94 5 79 0;
#X connect 94 6 92 0;
#X connect 97 0 96 0;
#X connect 98 0 96 0;
#X connect 99 0 100 0;
#X connect 99 1 100 1;
#X connect 100 0 101 0;
#X connect 101 0 97 0;
#X connect 101 1 98 0;
#X connect 103 0 7 0;
#X connect 104 0 17 0;
#X connect 105 0 27 0;
#X connect 106 0 115 0;
#X connect 106 0 107 0;
#X connect 108 0 16 0;
#X connect 109 0 110 0;
#X connect 110 0 61 0;
#X connect 111 0 112 0;
#X connect 112 0 23 0;
#X connect 113 0 93 0;
#X connect 114 0 93 0;
#X connect 115 0 108 0;
#X connect 116 0 108 2;
#X coords 0 -1 1 1 100 20 1 100 100;
