#N canvas 432 116 1189 908 12;
#X obj 95 65 inlet~;
#X obj 95 238 bob~, f 24;
#X obj 275 238 bob~, f 24;
#X obj 175 65 inlet~;
#X obj 95 503 outlet~;
#X obj 175 503 outlet~;
#X obj 500 56 inlet;
#X text 546 56 feed;
#X obj 560 680 s \$0-freq;
#X obj 630 680 s \$0-resonance;
#X obj 842 472 loadbang;
#X obj 550 565 expr pow(2 \, $f1)* 31.25;
#X floatatom 550 613 5 0 0 0 - - - 0;
#X obj 488 109 cnv 19 320 400 empty empty empty 20 12 0 12 #dfdfdf #404040 0;
#X obj 612 308 tgl 19 0 empty empty empty 0 -10 0 12 #fcfcfc #000000 #000000 0 1;
#X obj 548 342 spigot;
#X msg 492 264 1;
#X msg 539 264 0;
#X obj 546 309 key;
#X floatatom 508 324 5 0 0 0 - - - 0;
#X obj 548 372 spigot;
#X obj 612 348 tgl 19 0 empty empty empty 0 -10 0 12 #fcfcfc #000000 #000000 0 1;
#X obj 641 348 loadbang;
#X msg 641 372 1;
#X msg 646 265 0;
#X msg 694 265 1;
#X text 628 112 example filter patch \; inside of piano1;
#X msg 579 264 0;
#X obj 492 146 t a a, f 42;
#X obj 492 168 list;
#X msg 492 192 \$1;
#X obj 492 216 symbol;
#X msg 548 421 10;
#X msg 558 451 1;
#X msg 568 481 2;
#X msg 598 421 3;
#X msg 608 451 4;
#X msg 618 481 5;
#X msg 648 421 6;
#X msg 658 451 7;
#X msg 668 481 8;
#X msg 688 421 9;
#X msg 842 496 10;
#X obj 328 151 sig~;
#X obj 223 179 line~;
#X obj 223 123 r \$0-freq;
#X obj 328 127 r \$0-resonance;
#X obj 775 210 route;
#X obj 492 240 sel filon filoff off holdon holdoff;
#X obj 548 396 sel 48 49 50 51 52 53 54 55 56 57 60;
#X obj 550 541 clip 0 10;
#X obj 550 589 clip 0 19500;
#X obj 101 101 cnv 18 98 18 empty \$0-indicator filter 3 10 0 12 #14e814 #404040 0;
#X obj 998 455 s \$0-indicator;
#X msg 998 425 color 16;
#X msg 1071 423 color 0;
#X obj 1056 324 t b f;
#X obj 1056 365 &&;
#X obj 1056 398 sel 1;
#X msg 775 427 10;
#X msg 775 453 0;
#X msg 844 528 1;
#X obj 223 148 pack f 400;
#X msg 763 557 2;
#X msg 279 338 1;
#X floatatom 406 539 5 0 0 0 - - - 0;
#X floatatom 385 631 5 0 0 0 - - - 0;
#X obj 385 607 log;
#X obj 384 727 /;
#X obj 385 678 t b f;
#X msg 382 705 1;
#X floatatom 384 751 5 0 0 0 - - - 0;
#X obj 384 774 + 0.7;
#X obj 385 654 + 0.8;
#X obj 95 445 *~;
#X obj 177 443 *~;
#X obj 280 403 vline~;
#X obj 382 351 loadbang;
#X msg 280 379 \$1 400;
#X connect 0 0 1 0;
#X connect 1 0 74 0;
#X connect 2 0 75 0;
#X connect 3 0 2 0;
#X connect 6 0 28 0;
#X connect 10 0 42 0;
#X connect 10 0 61 0;
#X connect 11 0 51 0;
#X connect 12 0 8 0;
#X connect 14 0 15 1;
#X connect 14 0 56 0;
#X connect 15 0 20 0;
#X connect 16 0 14 0;
#X connect 17 0 14 0;
#X connect 18 0 15 0;
#X connect 18 0 19 0;
#X connect 20 0 49 0;
#X connect 21 0 20 1;
#X connect 21 0 57 0;
#X connect 22 0 23 0;
#X connect 23 0 21 0;
#X connect 24 0 21 0;
#X connect 25 0 21 0;
#X connect 27 0 14 0;
#X connect 28 0 29 0;
#X connect 28 1 47 0;
#X connect 29 0 30 0;
#X connect 30 0 31 0;
#X connect 31 0 48 0;
#X connect 32 0 50 0;
#X connect 32 0 61 0;
#X connect 33 0 50 0;
#X connect 33 0 63 0;
#X connect 34 0 50 0;
#X connect 34 0 63 0;
#X connect 35 0 50 0;
#X connect 35 0 63 0;
#X connect 36 0 50 0;
#X connect 36 0 63 0;
#X connect 37 0 50 0;
#X connect 37 0 63 0;
#X connect 38 0 50 0;
#X connect 38 0 63 0;
#X connect 39 0 50 0;
#X connect 39 0 63 0;
#X connect 40 0 50 0;
#X connect 40 0 63 0;
#X connect 41 0 50 0;
#X connect 42 0 50 0;
#X connect 43 0 1 2;
#X connect 43 0 2 2;
#X connect 44 0 1 1;
#X connect 44 0 2 1;
#X connect 45 0 62 0;
#X connect 46 0 43 0;
#X connect 48 0 16 0;
#X connect 48 1 17 0;
#X connect 48 2 27 0;
#X connect 48 3 24 0;
#X connect 48 4 25 0;
#X connect 49 0 32 0;
#X connect 49 1 33 0;
#X connect 49 2 34 0;
#X connect 49 3 35 0;
#X connect 49 4 36 0;
#X connect 49 5 37 0;
#X connect 49 6 38 0;
#X connect 49 7 39 0;
#X connect 49 8 40 0;
#X connect 49 9 41 0;
#X connect 49 10 59 0;
#X connect 50 0 11 0;
#X connect 50 0 65 0;
#X connect 51 0 12 0;
#X connect 54 0 53 0;
#X connect 55 0 53 0;
#X connect 56 0 57 0;
#X connect 56 1 57 1;
#X connect 57 0 58 0;
#X connect 58 0 54 0;
#X connect 58 1 55 0;
#X connect 59 0 50 0;
#X connect 59 0 60 0;
#X connect 60 0 14 0;
#X connect 60 0 61 0;
#X connect 61 0 9 0;
#X connect 62 0 44 0;
#X connect 63 0 9 0;
#X connect 64 0 78 0;
#X connect 65 0 67 0;
#X connect 66 0 73 0;
#X connect 67 0 66 0;
#X connect 68 0 71 0;
#X connect 69 0 70 0;
#X connect 69 1 68 1;
#X connect 70 0 68 0;
#X connect 71 0 72 0;
#X connect 72 0 78 0;
#X connect 73 0 69 0;
#X connect 74 0 4 0;
#X connect 75 0 5 0;
#X connect 76 0 74 1;
#X connect 76 0 75 1;
#X connect 77 0 64 0;
#X connect 78 0 76 0;
#X coords 0 -1 1 1 100 20 1 100 100;
