#N canvas 72 453 1656 521 12;
#X obj 824 529 osc~;
#X obj 824 505 * 1;
#X obj 864 529 osc~;
#X obj 864 505 * 2;
#X obj 904 529 osc~;
#X obj 944 529 osc~;
#X obj 824 553 *~ 8;
#X obj 864 553 *~ 2;
#X obj 904 505 * 3;
#X obj 944 505 * 4;
#X obj 904 553 *~ 5;
#X obj 944 553 *~ 2.5;
#X obj 994 529 osc~;
#X obj 1034 529 osc~;
#X obj 1084 529 osc~;
#X obj 1134 529 osc~;
#X obj 994 505 * 5;
#X obj 1034 505 * 6;
#X obj 1084 505 * 7;
#X obj 1134 505 * 8;
#X obj 994 553 *~ 1;
#X obj 1134 553 *~ 0.1;
#X floatatom 824 477 5 0 0 0 - - - 0;
#X obj 1253 522 noise~;
#X obj 841 755 *~;
#X obj 744 673 vline~;
#X obj 875 720 vcf~;
#X floatatom 1115 637 8 0 0 0 - - - 0;
#X floatatom 1159 734 5 0 0 0 - - - 0;
#X text 1203 733 Q;
#X obj 1118 610 hsl 169 18 200 2000 0 0 empty empty empty -2 -10 0 12 #dfdfdf #000000 #000000 0 1;
#X text 1183 637 <-- resonant frequency in Hz;
#X obj 1162 705 hsl 169 18 1 20 0 0 empty empty empty -2 -10 0 12 #dfdfdf #000000 #000000 0 1;
#X obj 1115 668 sig~ 200;
#X obj 822 449 +;
#X floatatom 820 400 5 0 0 0 - - - 0;
#X obj 819 361 mtof;
#X obj 820 423 t b f;
#X obj 932 336 cos, f 4;
#X obj 673 291 bng 19 250 50 0 empty empty empty 0 -10 0 12 #fcfcfc #000000 #000000;
#X obj 977 420 line;
#X obj 970 310 line;
#X floatatom 818 334 5 0 0 0 - - - 0;
#X floatatom 985 366 5 0 0 0 - - - 0;
#X floatatom 926 438 5 0 0 0 - - - 0;
#X obj 925 393 * 1;
#X floatatom 996 449 5 0 0 0 - - - 0;
#X floatatom 1008 337 5 0 0 0 - - - 0;
#X msg 977 396 1 \, 0 2000 100;
#X obj 1084 553 *~ 0.3;
#X obj 1034 553 *~ 0.3;
#X obj 677 251 t b f;
#X obj 224 152 keyname;
#X obj 224 176 tgl 19 0 empty empty empty 0 -10 0 12 #fcfcfc #000000 #000000 0 1;
#X obj 224 200 sel 1;
#X msg 264 180 set \$1;
#X msg 269 206 Meta_L;
#X obj 269 230 symbol;
#X msg 581 223 60;
#X msg 610 223 61;
#X msg 639 223 62;
#X msg 669 223 63;
#X msg 698 223 64;
#X msg 727 223 65;
#X msg 756 223 66;
#X msg 786 223 67;
#X msg 811 223 68;
#X msg 840 223 69;
#X msg 869 223 70;
#X msg 899 223 71;
#X msg 928 223 72;
#X msg 957 223 73;
#X msg 986 223 74;
#X obj 817 309 +;
#X obj 1099 243 + 0;
#X floatatom 1099 267 5 0 0 0 - - - 0;
#X obj 1059 290 * 12;
#X msg 1099 219 -1;
#X msg 1144 218 1;
#X obj 932 360 * 2;
#X msg 970 286 0 \, 30 2000;
#X msg 612 670 1 200;
#X obj 742 172 sel a w s e d f t g z h u j k o l p ö y x;
#X msg 1017 223 75;
#X msg 1046 223 76;
#X obj 429 179 tgl 19 0 empty empty empty 0 -10 0 12 #fcfcfc #000000 #000000 0 1;
#X obj 365 213 spigot;
#X obj 365 243 spigot;
#X obj 429 219 tgl 19 0 empty empty empty 0 -10 0 12 #fcfcfc #000000 #000000 0 1;
#X obj 458 219 loadbang;
#X msg 458 243 1;
#X obj 101 101 cnv 18 98 18 empty \$0-indicator flute 3 10 0 12 #fcfcfc #404040 0;
#X obj 366 394 s \$0-indicator;
#X msg 366 364 color 16;
#X msg 439 362 color 0;
#X obj 424 289 t b f;
#X obj 424 313 &&;
#X obj 424 337 sel 1;
#X obj 841 779 outlet~;
#X obj 884 76 inlet;
#X floatatom 888 112 5 0 0 0 - - - 0;
#X obj 1363 570 loadbang;
#X msg 1363 594 1000;
#X obj 1253 546 *~ 2;
#X obj 922 752 *~;
#X obj 834 583 *~ 8;
#X obj 874 583 *~ 2;
#X obj 1004 583 *~ 1;
#X obj 1144 583 *~ 0.1;
#X obj 914 721 vcf~;
#X obj 922 776 outlet~;
#X obj 914 583 *~ 4.4;
#X obj 954 583 *~ 2.7;
#X obj 1044 583 *~ 0.2;
#X obj 1094 583 *~ 0.2;
#X msg 1391 618 2;
#X obj 341 42 t a;
#X obj 339 -132 inlet;
#X obj 1209 6 inlet;
#X floatatom 1208 62 5 0 0 0 - - - 0;
#X obj 338 77 sel ü;
#X obj 384 100 sel ä;
#X obj 1213 84 s \$0-instance;
#X obj 418 -13 r \$0-instance;
#X obj 428 130 sel off holdon holdoff;
#X obj 414 25 t f f f;
#X msg 336 128 1;
#X msg 382 131 0;
#X msg 427 152 0;
#X msg 479 152 0;
#X msg 522 153 1;
#X obj 414 58 makefilename fl%don;
#X obj 424 80 makefilename fl%doff;
#X msg 1222 32 1;
#X obj 302 120 bng 19 250 50 0 empty empty empty 0 -10 0 12 #fcfcfc #000000 #000000;
#X obj 342 -36 list;
#X msg 342 -12 \$1;
#X obj 342 12 symbol;
#X msg 683 560 1 200 1 \, 0 2000 200;
#X text 706 541 orig;
#X msg 673 610 1 20 1 \, 0 800 20;
#X obj 841 681 *~ 0.01;
#X obj 913 680 *~ 0.01;
#X connect 0 0 6 0;
#X connect 0 0 105 0;
#X connect 1 0 0 0;
#X connect 2 0 7 0;
#X connect 2 0 106 0;
#X connect 3 0 2 0;
#X connect 4 0 10 0;
#X connect 5 0 11 0;
#X connect 5 0 112 0;
#X connect 6 0 141 0;
#X connect 7 0 141 0;
#X connect 8 0 4 0;
#X connect 9 0 5 0;
#X connect 10 0 141 0;
#X connect 11 0 141 0;
#X connect 12 0 20 0;
#X connect 12 0 107 0;
#X connect 13 0 50 0;
#X connect 13 0 113 0;
#X connect 14 0 49 0;
#X connect 14 0 114 0;
#X connect 15 0 21 0;
#X connect 15 0 108 0;
#X connect 16 0 12 0;
#X connect 17 0 13 0;
#X connect 18 0 14 0;
#X connect 19 0 15 0;
#X connect 19 0 30 0;
#X connect 20 0 141 0;
#X connect 21 0 141 0;
#X connect 22 0 1 0;
#X connect 22 0 19 0;
#X connect 22 0 18 0;
#X connect 22 0 17 0;
#X connect 22 0 16 0;
#X connect 22 0 9 0;
#X connect 22 0 8 0;
#X connect 22 0 3 0;
#X connect 23 0 103 0;
#X connect 24 0 98 0;
#X connect 25 0 24 1;
#X connect 25 0 104 1;
#X connect 26 0 24 0;
#X connect 27 0 33 0;
#X connect 28 0 26 2;
#X connect 28 0 109 2;
#X connect 30 0 27 0;
#X connect 32 0 28 0;
#X connect 33 0 26 1;
#X connect 33 0 109 1;
#X connect 34 0 22 0;
#X connect 35 0 37 0;
#X connect 36 0 35 0;
#X connect 37 0 34 0;
#X connect 37 1 34 1;
#X connect 38 0 79 0;
#X connect 39 0 48 0;
#X connect 39 0 80 0;
#X connect 39 0 140 0;
#X connect 40 0 45 1;
#X connect 40 0 46 0;
#X connect 41 0 38 0;
#X connect 41 0 47 0;
#X connect 42 0 36 0;
#X connect 45 0 34 0;
#X connect 45 0 44 0;
#X connect 48 0 40 0;
#X connect 49 0 141 0;
#X connect 50 0 141 0;
#X connect 51 0 39 0;
#X connect 51 1 73 0;
#X connect 52 0 53 0;
#X connect 52 1 55 0;
#X connect 53 0 54 0;
#X connect 54 0 56 0;
#X connect 55 0 56 0;
#X connect 56 0 57 0;
#X connect 57 0 86 0;
#X connect 58 0 51 0;
#X connect 59 0 51 0;
#X connect 60 0 51 0;
#X connect 61 0 51 0;
#X connect 62 0 51 0;
#X connect 63 0 51 0;
#X connect 64 0 51 0;
#X connect 65 0 51 0;
#X connect 66 0 51 0;
#X connect 67 0 51 0;
#X connect 68 0 51 0;
#X connect 69 0 51 0;
#X connect 70 0 51 0;
#X connect 71 0 51 0;
#X connect 72 0 51 0;
#X connect 73 0 42 0;
#X connect 74 0 75 0;
#X connect 75 0 74 1;
#X connect 75 0 76 0;
#X connect 76 0 73 1;
#X connect 77 0 74 0;
#X connect 78 0 74 0;
#X connect 79 0 43 0;
#X connect 79 0 45 0;
#X connect 80 0 41 0;
#X connect 81 0 25 0;
#X connect 82 0 58 0;
#X connect 82 1 59 0;
#X connect 82 2 60 0;
#X connect 82 3 61 0;
#X connect 82 4 62 0;
#X connect 82 5 63 0;
#X connect 82 6 64 0;
#X connect 82 7 65 0;
#X connect 82 8 66 0;
#X connect 82 9 67 0;
#X connect 82 10 68 0;
#X connect 82 11 69 0;
#X connect 82 12 70 0;
#X connect 82 13 71 0;
#X connect 82 14 72 0;
#X connect 82 15 83 0;
#X connect 82 16 84 0;
#X connect 82 17 77 0;
#X connect 82 18 78 0;
#X connect 83 0 69 0;
#X connect 83 0 51 0;
#X connect 84 0 69 0;
#X connect 84 0 51 0;
#X connect 85 0 86 1;
#X connect 85 0 96 0;
#X connect 86 0 87 0;
#X connect 87 0 82 0;
#X connect 88 0 87 1;
#X connect 88 0 95 0;
#X connect 89 0 90 0;
#X connect 90 0 88 0;
#X connect 93 0 92 0;
#X connect 94 0 92 0;
#X connect 95 0 96 0;
#X connect 95 1 96 1;
#X connect 96 0 97 0;
#X connect 97 0 93 0;
#X connect 97 1 94 0;
#X connect 99 0 51 0;
#X connect 101 0 102 0;
#X connect 101 0 115 0;
#X connect 102 0 30 0;
#X connect 103 0 141 0;
#X connect 103 0 142 0;
#X connect 104 0 110 0;
#X connect 105 0 142 0;
#X connect 106 0 142 0;
#X connect 107 0 142 0;
#X connect 108 0 142 0;
#X connect 109 0 104 0;
#X connect 111 0 142 0;
#X connect 112 0 142 0;
#X connect 113 0 142 0;
#X connect 114 0 142 0;
#X connect 115 0 32 0;
#X connect 116 0 120 0;
#X connect 117 0 135 0;
#X connect 118 0 119 0;
#X connect 119 0 122 0;
#X connect 120 0 126 0;
#X connect 120 0 134 0;
#X connect 120 1 121 0;
#X connect 121 0 127 0;
#X connect 121 1 124 0;
#X connect 123 0 125 0;
#X connect 124 0 128 0;
#X connect 124 1 129 0;
#X connect 124 2 130 0;
#X connect 125 0 131 0;
#X connect 125 1 132 0;
#X connect 126 0 85 0;
#X connect 127 0 85 0;
#X connect 128 0 85 0;
#X connect 129 0 88 0;
#X connect 130 0 88 0;
#X connect 131 0 120 1;
#X connect 132 0 121 1;
#X connect 133 0 119 0;
#X connect 135 0 136 0;
#X connect 136 0 137 0;
#X connect 137 0 116 0;
#X connect 140 0 25 0;
#X connect 141 0 26 0;
#X connect 142 0 109 0;
#X coords 0 -1 1 1 100 20 1 100 100;
