#N canvas 428 55 1134 1034 12;
#N canvas 0 22 450 278 (subpatch) 0;
#X array \$0-notes 64 float 3;
#A 0 62 0 0 0 62 0 70 0 69 0 0 0 69 0 0 0 62 0 62 0 62 0 70 0 69 0 0 0 69 0 0 0 62 0 62 0 62 0 70 0 69 0 69 0 69 0 69 0 62 0 62 0 62 0 65 0 70 0 69 0 69 0 69 0;
#X coords 0 100 64 0 200 140 1 0 0;
#X restore 141 642 graph;
#X obj 653 125 loadbang;
#X obj 653 149 bng 19 250 50 0 empty empty empty 0 -10 0 12 #fcfcfc #000000 #000000;
#X obj 653 173 f \$0;
#X msg 653 219 \; \$1-notes const 0;
#X floatatom 810 438 5 0 0 0 - - - 0;
#X obj 216 256 keyname;
#X obj 216 280 tgl 19 0 empty empty empty 0 -10 0 12 #fcfcfc #000000 #000000 0 1;
#X obj 216 304 sel 1;
#X msg 256 284 set \$1;
#X msg 261 310 Meta_L;
#X obj 261 334 symbol;
#X msg 573 327 60;
#X msg 602 327 61;
#X msg 631 327 62;
#X msg 661 327 63;
#X msg 690 327 64;
#X msg 719 327 65;
#X msg 748 327 66;
#X msg 778 327 67;
#X msg 803 327 68;
#X msg 832 327 69;
#X msg 861 327 70;
#X msg 891 327 71;
#X msg 920 327 72;
#X msg 949 327 73;
#X msg 978 327 74;
#X obj 809 413 +;
#X obj 1091 347 + 0;
#X floatatom 1091 371 5 0 0 0 - - - 0;
#X obj 1051 394 * 12;
#X msg 1091 323 -1;
#X msg 1136 322 1;
#X msg 1009 327 75;
#X msg 1038 327 76;
#X obj 421 283 tgl 19 0 empty empty empty 0 -10 0 12 #fcfcfc #000000 #000000 0 1;
#X obj 357 317 spigot;
#X obj 357 347 spigot;
#X obj 421 323 tgl 19 0 empty empty empty 0 -10 0 12 #fcfcfc #000000 #000000 0 1;
#X obj 450 323 loadbang;
#X msg 450 347 1;
#X obj 101 101 cnv 19 98 40 empty \$0-indicator kitab 3 12 0 12 #fcfcfc #404040 0;
#X obj 358 498 s \$0-indicator;
#X msg 358 468 color 16;
#X msg 431 466 color 0;
#X obj 416 393 t b f;
#X obj 416 417 &&;
#X obj 416 441 sel 1;
#X obj 809 68 inlet;
#X text 853 68 pulse;
#X obj 702 611 tabwrite \$0-notes;
#X floatatom 792 584 5 0 0 0 - - - 0;
#X floatatom 700 587 5 0 0 0 - - - 0;
#X obj 588 434 loadbang;
#X msg 588 458 0;
#X obj 692 475 +;
#X msg 677 429 1;
#X floatatom 692 497 5 0 0 0 - - - 0;
#X obj 692 520 - 1;
#X obj 669 355 t f b;
#X floatatom 161 122 5 0 0 0 note \$0-note_in \$0-note_out 0;
#X obj 596 591 s \$0-note_in;
#X msg 890 375 0;
#X obj 666 744 tabread \$0-notes;
#X obj 666 768 sel 0;
#X obj 698 872 outlet;
#X msg 893 107 \$1;
#X obj 102 121 tgl 19 0 \$0-final_gate_out \$0-final_gate empty 0 -10 0 12 #fcfcfc #000000 #000000 0 1;
#X obj 693 829 spigot;
#X obj 733 807 r \$0-final_gate_out;
#X obj 502 218 tgl 19 0 empty empty empty 0 -10 0 12 #fcfcfc #000000 #000000 0 1;
#X obj 506 241 s \$0-final_gate;
#X obj 893 131 mod 32;
#X floatatom 814 107 5 0 0 0 - - - 0;
#X floatatom 893 155 5 0 0 0 - - - 0;
#X obj 814 130 -1;
#X obj 893 202 mod 32;
#X obj 893 178 - 1;
#X msg 576 149 1;
#X obj 222 -85 inlet;
#X obj 1088 -33 inlet;
#X floatatom 1087 23 5 0 0 0 - - - 0;
#X obj 217 38 sel ü;
#X obj 263 61 sel ä;
#X obj 1092 45 s \$0-instance;
#X obj 297 -52 r \$0-instance;
#X obj 307 91 sel off holdon holdoff;
#X msg 215 89 1;
#X msg 261 92 0;
#X msg 306 113 0;
#X msg 358 113 0;
#X msg 401 114 1;
#X obj 293 19 makefilename rec%don;
#X obj 303 41 makefilename rec%doff;
#X obj 459 118 sel ü;
#X obj 505 141 sel ä;
#X msg 1101 -7 1;
#X obj 1091 394 s \$0-octave;
#X floatatom 182 102 2 0 0 0 - \$0-octave \$0-octave-out 0;
#X listbox 534 93 20 0 0 0 - - - 0;
#X obj 890 399 t f b;
#X obj 451 151 bng 19 250 50 0 empty empty empty 0 -10 0 12 #fcfcfc #000000 #000000;
#X obj 461 30 makefilename rec%dgate;
#X obj 486 57 makefilename rec%dclear;
#X obj 217 -32 list;
#X msg 217 -8 \$1;
#X obj 217 16 symbol;
#X floatatom 954 27 5 0 0 0 - - - 0;
#X obj 953 -20 loadbang;
#X msg 953 4 32;
#X obj 220 -57 t a a, f 57;
#X obj 702 -38 list trim;
#X obj 702 43 list;
#X floatatom 702 92 5 0 0 0 - - - 0;
#X obj 702 67 float;
#X obj 293 -14 t f f f f f;
#X obj 470 -3 makefilename rec%d;
#X obj 702 -12 route rec;
#X obj 702 15 route len;
#X obj 946 581 s \$0-final_gate;
#X obj 734 276 sel a w s e d f t g z h u j k o l p ö y x Space ä;
#X msg 950 549 bang;
#X connect 1 0 2 0;
#X connect 1 0 78 0;
#X connect 2 0 3 0;
#X connect 3 0 4 0;
#X connect 5 0 52 0;
#X connect 6 0 7 0;
#X connect 6 1 9 0;
#X connect 7 0 8 0;
#X connect 8 0 10 0;
#X connect 9 0 10 0;
#X connect 10 0 11 0;
#X connect 11 0 36 0;
#X connect 12 0 59 0;
#X connect 13 0 59 0;
#X connect 14 0 59 0;
#X connect 15 0 59 0;
#X connect 16 0 59 0;
#X connect 17 0 59 0;
#X connect 18 0 59 0;
#X connect 19 0 59 0;
#X connect 20 0 59 0;
#X connect 21 0 59 0;
#X connect 22 0 59 0;
#X connect 23 0 59 0;
#X connect 24 0 59 0;
#X connect 25 0 59 0;
#X connect 26 0 59 0;
#X connect 27 0 5 0;
#X connect 28 0 29 0;
#X connect 29 0 28 1;
#X connect 29 0 30 0;
#X connect 29 0 97 0;
#X connect 30 0 27 1;
#X connect 31 0 28 0;
#X connect 32 0 28 0;
#X connect 33 0 23 0;
#X connect 33 0 59 0;
#X connect 34 0 23 0;
#X connect 34 0 59 0;
#X connect 35 0 36 1;
#X connect 35 0 46 0;
#X connect 36 0 37 0;
#X connect 37 0 120 0;
#X connect 38 0 37 1;
#X connect 38 0 45 0;
#X connect 39 0 40 0;
#X connect 40 0 38 0;
#X connect 43 0 42 0;
#X connect 44 0 42 0;
#X connect 45 0 46 0;
#X connect 45 1 46 1;
#X connect 46 0 47 0;
#X connect 47 0 43 0;
#X connect 47 1 44 0;
#X connect 48 0 73 0;
#X connect 51 0 50 1;
#X connect 52 0 50 0;
#X connect 52 0 61 0;
#X connect 53 0 54 0;
#X connect 54 0 55 1;
#X connect 55 0 57 0;
#X connect 56 0 55 0;
#X connect 57 0 55 1;
#X connect 57 0 58 0;
#X connect 58 0 51 0;
#X connect 59 0 27 0;
#X connect 59 1 56 0;
#X connect 62 0 100 0;
#X connect 63 0 64 0;
#X connect 64 1 68 0;
#X connect 66 0 72 0;
#X connect 68 0 65 0;
#X connect 69 0 68 1;
#X connect 70 0 71 0;
#X connect 72 0 74 0;
#X connect 73 0 75 0;
#X connect 74 0 77 0;
#X connect 75 0 66 0;
#X connect 76 0 63 0;
#X connect 77 0 76 0;
#X connect 78 0 70 0;
#X connect 79 0 110 0;
#X connect 80 0 81 0;
#X connect 81 0 84 0;
#X connect 82 0 87 0;
#X connect 82 1 83 0;
#X connect 83 0 88 0;
#X connect 83 1 86 0;
#X connect 85 0 115 0;
#X connect 86 0 89 0;
#X connect 86 1 90 0;
#X connect 86 2 91 0;
#X connect 86 3 94 0;
#X connect 87 0 35 0;
#X connect 87 0 54 0;
#X connect 88 0 35 0;
#X connect 89 0 35 0;
#X connect 90 0 38 0;
#X connect 91 0 38 0;
#X connect 92 0 82 1;
#X connect 93 0 83 1;
#X connect 94 0 70 0;
#X connect 94 0 101 0;
#X connect 94 1 95 0;
#X connect 95 0 2 0;
#X connect 96 0 81 0;
#X connect 100 0 5 0;
#X connect 100 1 56 0;
#X connect 102 0 94 1;
#X connect 103 0 95 1;
#X connect 103 0 99 0;
#X connect 104 0 105 0;
#X connect 105 0 106 0;
#X connect 106 0 82 0;
#X connect 107 0 72 1;
#X connect 107 0 76 1;
#X connect 108 0 109 0;
#X connect 109 0 107 0;
#X connect 110 0 104 0;
#X connect 110 1 111 0;
#X connect 111 0 117 0;
#X connect 112 0 114 0;
#X connect 113 0 107 0;
#X connect 114 0 113 0;
#X connect 115 0 92 0;
#X connect 115 1 93 0;
#X connect 115 2 102 0;
#X connect 115 3 103 0;
#X connect 115 4 116 0;
#X connect 116 0 117 1;
#X connect 117 0 118 0;
#X connect 118 0 112 0;
#X connect 120 0 12 0;
#X connect 120 1 13 0;
#X connect 120 2 14 0;
#X connect 120 3 15 0;
#X connect 120 4 16 0;
#X connect 120 5 17 0;
#X connect 120 6 18 0;
#X connect 120 7 19 0;
#X connect 120 8 20 0;
#X connect 120 9 21 0;
#X connect 120 10 22 0;
#X connect 120 11 23 0;
#X connect 120 12 24 0;
#X connect 120 13 25 0;
#X connect 120 14 26 0;
#X connect 120 15 33 0;
#X connect 120 16 34 0;
#X connect 120 17 31 0;
#X connect 120 18 32 0;
#X connect 120 19 62 0;
#X connect 120 20 121 0;
#X connect 121 0 119 0;
#X coords 0 -1 1 1 100 42 1 100 100;
