#N canvas 291 67 1417 1019 12;
#X listbox 813 383 20 0 0 0 - - - 0;
#X obj 425 1182 outlet~;
#X obj 485 1182 outlet~;
#X floatatom 1077 78 5 0 0 0 - - - 0;
#X msg 1091 48 0;
#X obj 1082 100 s \$0-instance;
#X obj 540 24 r \$0-instance;
#X obj 539 71 s \$0-instance_box;
#X obj 935 855 *~ 1;
#X obj 988 856 *~ 1;
#X obj 937 815 *~ 1;
#X obj 1025 49 r \$0-on;
#X msg 1123 63 1;
#X msg 1030 83 bang;
#X obj 813 360 list split 1;
#X obj -225 444 keyname;
#X obj -225 468 tgl 19 0 empty empty empty 0 -10 0 12 #fcfcfc #000000 #000000 0 1;
#X obj -225 492 sel 1;
#X msg -185 472 set \$1;
#X msg -180 498 s;
#X obj -180 522 symbol;
#X msg 537 575 74;
#X obj 293 464 sel a w s e d f t g z h u j k o l p ö y x;
#X msg 568 605 75;
#X msg 597 515 76;
#X obj -20 471 tgl 19 0 empty empty empty 0 -10 0 12 #fcfcfc #000000 #000000 0 1;
#X obj -84 505 spigot;
#X obj -84 535 spigot;
#X obj -20 511 tgl 19 0 empty empty empty 0 -10 0 12 #fcfcfc #000000 #000000 0 1;
#X obj 9 511 loadbang;
#X msg 9 535 1;
#X obj 101 101 cnv 18 198 58 empty \$0-indicator sampler\ v2 3 10 0 12 #fcfcfc #404040 0;
#X obj -83 686 s \$0-indicator;
#X msg -83 656 color 16;
#X msg -10 654 color 0;
#X obj -25 581 t b f;
#X obj -25 605 &&;
#X obj -25 629 sel 1;
#X obj -108 334 t a;
#X obj -111 369 sel ü;
#X obj -65 392 sel ä;
#X obj -31 279 r \$0-instance;
#X obj -21 422 sel off holdon holdoff;
#X obj -35 317 t f f f;
#X msg -113 420 1;
#X msg -67 423 0;
#X msg -22 444 0;
#X msg 30 444 0;
#X msg 73 445 1;
#X obj -147 412 bng 19 250 50 0 empty empty empty 0 -10 0 12 #fcfcfc #000000 #000000;
#X obj -107 256 list;
#X msg -107 280 \$1;
#X obj -107 304 symbol;
#X listbox 249 134 5 0 0 0 - \$0-instance_box \$0-instance_box_out 0;
#X obj -107 41 inlet;
#X obj 1078 22 inlet;
#X obj 228 633 t b a;
#X obj 723 356 r \$0-kick;
#X obj 268 739 s \$0-kick;
#X msg 813 336 smp/808/Kick.wav;
#X msg 132 515 60;
#X msg 161 545 61;
#X msg 190 575 62;
#X msg 220 605 63;
#X msg 249 515 64;
#X msg 278 545 65;
#X msg 307 575 66;
#X msg 337 605 67;
#X msg 362 515 68;
#X msg 391 545 69;
#X msg 420 575 70;
#X msg 450 605 71;
#X msg 479 515 72;
#X msg 508 545 73;
#X obj 299 768 s \$0-snare1;
#X obj 723 382 bng 19 250 50 0 empty empty empty 0 -10 0 12 #fcfcfc #000000 #000000;
#X obj 813 310 loadbang;
#X obj 928 671 clone smp_player-v2 8;
#X msg 723 406 0 bang;
#X msg 813 406 0 \$1;
#X obj 723 430 s \$0-left;
#X obj 813 430 s \$0-right;
#X obj 926 647 r \$0-left;
#X obj 1020 647 r \$0-right;
#X listbox 1053 383 20 0 0 0 - - - 0;
#X obj 1053 360 list split 1;
#X obj 963 382 bng 19 250 50 0 empty empty empty 0 -10 0 12 #fcfcfc #000000 #000000;
#X obj 1053 310 loadbang;
#X obj 963 430 s \$0-left;
#X obj 1053 430 s \$0-right;
#X obj 963 356 r \$0-snare1;
#X msg 1053 336 smp/808/Snare1.wav;
#X msg 1053 406 1 \$1;
#X msg 963 406 1 bang;
#X listbox 1293 383 20 0 0 0 - - - 0;
#X obj 1293 360 list split 1;
#X obj 1203 382 bng 19 250 50 0 empty empty empty 0 -10 0 12 #fcfcfc #000000 #000000;
#X obj 1293 310 loadbang;
#X obj 1203 430 s \$0-left;
#X obj 1293 430 s \$0-right;
#X listbox 1533 383 20 0 0 0 - - - 0;
#X obj 1533 360 list split 1;
#X obj 1443 382 bng 19 250 50 0 empty empty empty 0 -10 0 12 #fcfcfc #000000 #000000;
#X obj 1533 310 loadbang;
#X obj 1443 430 s \$0-left;
#X obj 1533 430 s \$0-right;
#X obj 339 798 s \$0-hat1;
#X obj 1203 356 r \$0-hat1;
#X obj 1443 356 r \$0-hat2;
#X obj 369 828 s \$0-hat2;
#X obj 389 858 s \$0-hatOpen;
#X msg 1203 406 2 bang;
#X msg 1293 406 2 \$1;
#X msg 1443 406 3 bang;
#X msg 1533 406 3 \$1;
#X listbox 813 533 20 0 0 0 - - - 0;
#X obj 813 510 list split 1;
#X obj 723 532 bng 19 250 50 0 empty empty empty 0 -10 0 12 #fcfcfc #000000 #000000;
#X obj 813 460 loadbang;
#X obj 723 580 s \$0-left;
#X obj 813 580 s \$0-right;
#X listbox 1053 533 20 0 0 0 - - - 0;
#X obj 1053 510 list split 1;
#X obj 963 532 bng 19 250 50 0 empty empty empty 0 -10 0 12 #fcfcfc #000000 #000000;
#X obj 1053 460 loadbang;
#X obj 963 580 s \$0-left;
#X obj 1053 580 s \$0-right;
#X listbox 1293 533 20 0 0 0 - - - 0;
#X obj 1293 510 list split 1;
#X obj 1203 532 bng 19 250 50 0 empty empty empty 0 -10 0 12 #fcfcfc #000000 #000000;
#X obj 1293 460 loadbang;
#X obj 1203 580 s \$0-left;
#X obj 1293 580 s \$0-right;
#X listbox 1533 533 20 0 0 0 - - - 0;
#X obj 1533 510 list split 1;
#X obj 1443 532 bng 19 250 50 0 empty empty empty 0 -10 0 12 #fcfcfc #000000 #000000;
#X obj 1533 460 loadbang;
#X obj 1443 580 s \$0-left;
#X obj 1533 580 s \$0-right;
#X msg 1293 336 smp/808/Hat1.wav;
#X msg 1533 336 smp/808/Hat2.wav;
#X obj 723 506 r \$0-hatOpen;
#X msg 813 486 smp/808/HatOpen.wav;
#X obj 419 758 s \$0-ride;
#X obj 399 728 s \$0-crash;
#X obj 963 506 r \$0-crash;
#X obj 1203 506 r \$0-ride;
#X msg 723 556 4 bang;
#X msg 813 556 4 \$1;
#X msg 963 556 5 bang;
#X msg 1053 556 5 \$1;
#X msg 1203 556 6 bang;
#X msg 1293 556 6 \$1;
#X msg 1443 556 7 bang;
#X msg 1533 556 7 \$1;
#X obj 1443 506 r \$0-clap;
#X obj 270 681 route 60 62 66 68 70 73 75 63;
#X obj 429 798 s \$0-clap;
#X msg 1533 486 smp/808/Clap.wav;
#X msg 1293 486 smp/808/Ride.wav;
#X msg 1053 486 smp/808/Crash.wav;
#X obj -35 350 makefilename ms%don;
#X obj -25 372 makefilename ms%doff;
#X obj 539 47 makefilename ms%d;
#X obj 371 32 inlet;
#X connect 0 0 79 0;
#X connect 3 0 5 0;
#X connect 4 0 3 0;
#X connect 6 0 163 0;
#X connect 8 0 1 0;
#X connect 9 0 2 0;
#X connect 10 0 8 0;
#X connect 10 0 9 0;
#X connect 11 0 13 0;
#X connect 12 0 3 0;
#X connect 13 0 3 0;
#X connect 14 0 0 0;
#X connect 15 0 16 0;
#X connect 15 1 18 0;
#X connect 16 0 17 0;
#X connect 17 0 19 0;
#X connect 18 0 19 0;
#X connect 19 0 20 0;
#X connect 20 0 26 0;
#X connect 21 0 56 0;
#X connect 22 0 60 0;
#X connect 22 1 61 0;
#X connect 22 2 62 0;
#X connect 22 3 63 0;
#X connect 22 4 64 0;
#X connect 22 5 65 0;
#X connect 22 6 66 0;
#X connect 22 7 67 0;
#X connect 22 8 68 0;
#X connect 22 9 69 0;
#X connect 22 10 70 0;
#X connect 22 11 71 0;
#X connect 22 12 72 0;
#X connect 22 13 73 0;
#X connect 22 14 21 0;
#X connect 22 15 23 0;
#X connect 22 16 24 0;
#X connect 23 0 71 0;
#X connect 23 0 56 0;
#X connect 24 0 71 0;
#X connect 24 0 56 0;
#X connect 25 0 26 1;
#X connect 25 0 36 0;
#X connect 26 0 27 0;
#X connect 27 0 22 0;
#X connect 28 0 27 1;
#X connect 28 0 35 0;
#X connect 29 0 30 0;
#X connect 30 0 28 0;
#X connect 33 0 32 0;
#X connect 34 0 32 0;
#X connect 35 0 36 0;
#X connect 35 1 36 1;
#X connect 36 0 37 0;
#X connect 37 0 33 0;
#X connect 37 1 34 0;
#X connect 38 0 39 0;
#X connect 39 0 44 0;
#X connect 39 0 49 0;
#X connect 39 1 40 0;
#X connect 40 0 45 0;
#X connect 40 1 42 0;
#X connect 41 0 43 0;
#X connect 42 0 46 0;
#X connect 42 1 47 0;
#X connect 42 2 48 0;
#X connect 43 0 161 0;
#X connect 43 1 162 0;
#X connect 44 0 25 0;
#X connect 45 0 25 0;
#X connect 46 0 25 0;
#X connect 47 0 28 0;
#X connect 48 0 28 0;
#X connect 50 0 51 0;
#X connect 51 0 52 0;
#X connect 52 0 38 0;
#X connect 54 0 50 0;
#X connect 55 0 3 0;
#X connect 56 1 156 0;
#X connect 57 0 75 0;
#X connect 59 0 14 0;
#X connect 60 0 56 0;
#X connect 61 0 56 0;
#X connect 62 0 56 0;
#X connect 63 0 56 0;
#X connect 64 0 56 0;
#X connect 65 0 56 0;
#X connect 66 0 56 0;
#X connect 67 0 56 0;
#X connect 68 0 56 0;
#X connect 69 0 56 0;
#X connect 70 0 56 0;
#X connect 71 0 56 0;
#X connect 72 0 56 0;
#X connect 73 0 56 0;
#X connect 75 0 78 0;
#X connect 76 0 59 0;
#X connect 77 0 10 0;
#X connect 78 0 80 0;
#X connect 79 0 81 0;
#X connect 82 0 77 0;
#X connect 83 0 77 1;
#X connect 84 0 92 0;
#X connect 85 0 84 0;
#X connect 86 0 93 0;
#X connect 87 0 91 0;
#X connect 90 0 86 0;
#X connect 91 0 85 0;
#X connect 92 0 89 0;
#X connect 93 0 88 0;
#X connect 94 0 112 0;
#X connect 95 0 94 0;
#X connect 96 0 111 0;
#X connect 97 0 139 0;
#X connect 100 0 114 0;
#X connect 101 0 100 0;
#X connect 102 0 113 0;
#X connect 103 0 140 0;
#X connect 107 0 96 0;
#X connect 108 0 102 0;
#X connect 111 0 98 0;
#X connect 112 0 99 0;
#X connect 113 0 104 0;
#X connect 114 0 105 0;
#X connect 115 0 148 0;
#X connect 116 0 115 0;
#X connect 117 0 147 0;
#X connect 118 0 142 0;
#X connect 121 0 150 0;
#X connect 122 0 121 0;
#X connect 123 0 149 0;
#X connect 124 0 160 0;
#X connect 127 0 152 0;
#X connect 128 0 127 0;
#X connect 129 0 151 0;
#X connect 130 0 159 0;
#X connect 133 0 154 0;
#X connect 134 0 133 0;
#X connect 135 0 153 0;
#X connect 136 0 158 0;
#X connect 139 0 95 0;
#X connect 140 0 101 0;
#X connect 141 0 117 0;
#X connect 142 0 116 0;
#X connect 145 0 123 0;
#X connect 146 0 129 0;
#X connect 147 0 119 0;
#X connect 148 0 120 0;
#X connect 149 0 125 0;
#X connect 150 0 126 0;
#X connect 151 0 131 0;
#X connect 152 0 132 0;
#X connect 153 0 137 0;
#X connect 154 0 138 0;
#X connect 155 0 135 0;
#X connect 156 0 58 0;
#X connect 156 1 74 0;
#X connect 156 2 106 0;
#X connect 156 3 109 0;
#X connect 156 4 110 0;
#X connect 156 5 144 0;
#X connect 156 6 143 0;
#X connect 156 7 157 0;
#X connect 158 0 134 0;
#X connect 159 0 128 0;
#X connect 160 0 122 0;
#X connect 161 0 39 1;
#X connect 162 0 40 1;
#X connect 163 0 7 0;
#X connect 164 0 156 0;
#X coords 0 -1 1 1 200 60 1 100 100;
