#N canvas 73 248 1221 826 12;
#X obj 937 238 r \$0-samp_name;
#X listbox 937 352 20 0 0 0 - - - 0;
#X obj 425 1182 outlet~;
#X obj 485 1182 outlet~;
#X obj 937 468 soundfiler;
#X floatatom 939 493 7 0 0 0 - - - 0;
#X listbox 1006 493 16 0 0 0 - - - 0;
#X obj 1039 376 f \$0;
#X obj 937 377 t a b;
#X obj 937 404 pack s f;
#X msg 937 435 read -resize \$1 \$2-smp;
#X msg 1006 516 \$1;
#X floatatom 1006 540 5 0 0 0 - - - 0;
#X obj 978 584 /;
#X floatatom 978 608 5 0 0 0 - - - 0;
#X obj 978 631 * 1000;
#X obj 939 516 t f f;
#X text 1026 630 ms;
#X obj 924 687 pack f f;
#X obj 1039 400 t f f;
#X obj 833 608 +;
#X obj 1079 375 bng 19 250 50 0 empty empty empty 0 -10 0 12 #fcfcfc #000000 #000000;
#X msg 831 585 0;
#X obj 1025 689 t f;
#X msg 937 726 next \$1 \$2;
#X msg 1025 713 all \$1;
#X floatatom 1077 78 5 0 0 0 - - - 0;
#X msg 1091 48 0;
#X obj 1082 100 s \$0-instance;
#X obj 540 24 r \$0-instance;
#X obj 539 71 s \$0-instance_box;
#X obj 935 855 *~ 1;
#X obj 988 856 *~ 1;
#X obj 1025 49 r \$0-on;
#X msg 1123 63 1;
#X msg 1030 83 bang;
#X obj 854 95 s \$0-samp_name_in;
#X obj 854 71 list split 1;
#X obj 539 47 makefilename os%d;
#N canvas 208 233 450 278 (subpatch) 0;
#X array \$0-smp 132300 float 2;
#X coords 0 278 132300 277 200 140 0;
#X restore 1143 459 graph;
#X msg 701 10 smp/808/Crash.wav;
#X obj 568 225 r \$0-pulse;
#X obj 864 805 env~;
#X floatatom 864 829 5 0 0 0 - - - 0;
#X obj 759 509 t b f;
#X obj 978 655 * 1;
#X obj 918 623 t b f;
#X msg 802 696 132300 3000;
#X floatatom 991 679 5 0 0 0 - - - 0;
#X obj 926 768 clone smp_player 1;
#X obj 760 439 mtof;
#X obj 808 438 mtof;
#X msg 760 318 60;
#X obj 758 292 loadbang;
#X obj 760 463 /;
#X obj 808 462 t b f;
#X floatatom 760 487 5 0 0 0 - - - 0;
#X floatatom 809 351 5 0 0 0 inlet\ midi\ note - - 0;
#X floatatom 760 417 5 0 0 0 comparison\ midi\ note - - 0;
#X obj 228 543 t b f;
#X obj -225 444 keyname;
#X obj -225 468 tgl 19 0 empty empty empty 0 -10 0 12 #fcfcfc #000000 #000000 0 1;
#X obj -225 492 sel 1;
#X msg -185 472 set \$1;
#X msg -180 498 Meta_L;
#X obj -180 522 symbol;
#X msg 132 515 60;
#X msg 161 515 61;
#X msg 190 515 62;
#X msg 220 515 63;
#X msg 249 515 64;
#X msg 278 515 65;
#X msg 307 515 66;
#X msg 337 515 67;
#X msg 362 515 68;
#X msg 391 515 69;
#X msg 420 515 70;
#X msg 450 515 71;
#X msg 479 515 72;
#X msg 508 515 73;
#X msg 537 515 74;
#X obj 368 601 +;
#X obj 650 535 + 0;
#X floatatom 650 559 5 0 0 0 - - - 0;
#X obj 610 582 * 12;
#X msg 650 511 -1;
#X msg 695 510 1;
#X obj 293 464 sel a w s e d f t g z h u j k o l p ö y x;
#X msg 568 515 75;
#X msg 597 515 76;
#X obj -20 471 tgl 19 0 empty empty empty 0 -10 0 12 #fcfcfc #000000 #000000 0 1;
#X obj -84 505 spigot;
#X obj -84 535 spigot;
#X obj -20 511 tgl 19 0 empty empty empty 0 -10 0 12 #fcfcfc #000000 #000000 0 1;
#X obj 9 511 loadbang;
#X msg 9 535 1;
#X obj 101 101 cnv 18 198 58 empty \$0-indicator one-shot 3 10 0 12 #fcfcfc #404040 0;
#X obj -83 686 s \$0-indicator;
#X msg -83 656 color 16;
#X msg -10 654 color 0;
#X obj -25 581 t b f;
#X obj -25 605 &&;
#X obj -25 629 sel 1;
#X floatatom 439 404 5 0 0 0 - - - 0;
#X obj -108 334 t a;
#X obj -111 369 sel ü;
#X obj -65 392 sel ä;
#X obj -31 279 r \$0-instance;
#X obj -21 422 sel off holdon holdoff;
#X obj -35 317 t f f f;
#X msg -113 420 1;
#X msg -67 423 0;
#X msg -22 444 0;
#X msg 30 444 0;
#X msg 73 445 1;
#X obj -147 412 bng 19 250 50 0 empty empty empty 0 -10 0 12 #fcfcfc #000000 #000000;
#X obj -107 256 list;
#X msg -107 280 \$1;
#X obj -107 304 symbol;
#X floatatom 368 625 5 0 0 0 - - - 0;
#X obj -35 350 makefilename os%don;
#X obj -25 372 makefilename os%doff;
#X listbox 249 134 5 0 0 0 - \$0-instance_box \$0-instance_box_out 0;
#X listbox 104 134 20 0 0 0 - \$0-samp_name_in \$0-samp_name 0;
#X obj -107 41 inlet;
#X obj 414 27 inlet;
#X obj 854 13 inlet;
#X obj 1078 22 inlet;
#X obj 937 815 *~ 0.6;
#X connect 0 0 1 0;
#X connect 1 0 8 0;
#X connect 4 0 5 0;
#X connect 4 1 6 0;
#X connect 5 0 16 0;
#X connect 6 0 11 0;
#X connect 7 0 19 0;
#X connect 8 0 9 0;
#X connect 8 1 7 0;
#X connect 9 0 10 0;
#X connect 10 0 4 0;
#X connect 11 0 12 0;
#X connect 12 0 13 1;
#X connect 13 0 14 0;
#X connect 14 0 15 0;
#X connect 15 0 45 0;
#X connect 16 0 20 1;
#X connect 16 1 13 0;
#X connect 18 0 24 0;
#X connect 19 0 9 1;
#X connect 19 1 23 0;
#X connect 20 0 18 0;
#X connect 21 0 7 0;
#X connect 22 0 20 0;
#X connect 23 0 25 0;
#X connect 24 0 49 0;
#X connect 25 0 49 1;
#X connect 26 0 28 0;
#X connect 27 0 26 0;
#X connect 29 0 38 0;
#X connect 31 0 2 0;
#X connect 32 0 3 0;
#X connect 33 0 35 0;
#X connect 34 0 26 0;
#X connect 35 0 26 0;
#X connect 37 0 36 0;
#X connect 38 0 30 0;
#X connect 40 0 37 0;
#X connect 42 0 43 0;
#X connect 44 0 22 0;
#X connect 44 1 46 0;
#X connect 45 0 18 1;
#X connect 45 0 48 0;
#X connect 46 0 45 0;
#X connect 46 1 45 1;
#X connect 47 0 24 0;
#X connect 49 0 42 0;
#X connect 49 0 128 0;
#X connect 50 0 54 0;
#X connect 51 0 55 0;
#X connect 52 0 58 0;
#X connect 53 0 52 0;
#X connect 54 0 56 0;
#X connect 55 0 54 0;
#X connect 55 1 54 1;
#X connect 56 0 44 0;
#X connect 57 0 51 0;
#X connect 58 0 50 0;
#X connect 59 1 81 0;
#X connect 60 0 61 0;
#X connect 60 1 63 0;
#X connect 61 0 62 0;
#X connect 62 0 64 0;
#X connect 63 0 64 0;
#X connect 64 0 65 0;
#X connect 65 0 91 0;
#X connect 66 0 59 0;
#X connect 67 0 59 0;
#X connect 68 0 59 0;
#X connect 69 0 59 0;
#X connect 70 0 59 0;
#X connect 71 0 59 0;
#X connect 72 0 59 0;
#X connect 73 0 59 0;
#X connect 74 0 59 0;
#X connect 75 0 59 0;
#X connect 76 0 59 0;
#X connect 77 0 59 0;
#X connect 78 0 59 0;
#X connect 79 0 59 0;
#X connect 80 0 59 0;
#X connect 81 0 119 0;
#X connect 82 0 83 0;
#X connect 83 0 82 1;
#X connect 83 0 84 0;
#X connect 84 0 81 1;
#X connect 85 0 82 0;
#X connect 86 0 82 0;
#X connect 87 0 66 0;
#X connect 87 1 67 0;
#X connect 87 2 68 0;
#X connect 87 3 69 0;
#X connect 87 4 70 0;
#X connect 87 5 71 0;
#X connect 87 6 72 0;
#X connect 87 7 73 0;
#X connect 87 8 74 0;
#X connect 87 9 75 0;
#X connect 87 10 76 0;
#X connect 87 11 77 0;
#X connect 87 12 78 0;
#X connect 87 13 79 0;
#X connect 87 14 80 0;
#X connect 87 15 88 0;
#X connect 87 16 89 0;
#X connect 87 17 85 0;
#X connect 87 18 86 0;
#X connect 88 0 77 0;
#X connect 88 0 59 0;
#X connect 89 0 77 0;
#X connect 89 0 59 0;
#X connect 90 0 91 1;
#X connect 90 0 101 0;
#X connect 91 0 92 0;
#X connect 92 0 87 0;
#X connect 93 0 92 1;
#X connect 93 0 100 0;
#X connect 94 0 95 0;
#X connect 95 0 93 0;
#X connect 98 0 97 0;
#X connect 99 0 97 0;
#X connect 100 0 101 0;
#X connect 100 1 101 1;
#X connect 101 0 102 0;
#X connect 102 0 98 0;
#X connect 102 1 99 0;
#X connect 104 0 105 0;
#X connect 105 0 110 0;
#X connect 105 0 115 0;
#X connect 105 1 106 0;
#X connect 106 0 111 0;
#X connect 106 1 108 0;
#X connect 107 0 109 0;
#X connect 108 0 112 0;
#X connect 108 1 113 0;
#X connect 108 2 114 0;
#X connect 109 0 120 0;
#X connect 109 1 121 0;
#X connect 110 0 90 0;
#X connect 111 0 90 0;
#X connect 112 0 90 0;
#X connect 113 0 93 0;
#X connect 114 0 93 0;
#X connect 116 0 117 0;
#X connect 117 0 118 0;
#X connect 118 0 104 0;
#X connect 119 0 57 0;
#X connect 120 0 105 1;
#X connect 121 0 106 1;
#X connect 124 0 116 0;
#X connect 125 0 57 0;
#X connect 126 0 37 0;
#X connect 127 0 26 0;
#X connect 128 0 31 0;
#X connect 128 0 32 0;
#X coords 0 -1 1 1 200 60 1 100 100;
