#N canvas 250 275 1133 814 12;
#X obj 259 131 tgl 9 0 \$0-1 \$0-1_in empty 0 -10 0 12 #d8fcd8 #ffffff #000000 0 1;
#X obj 270 131 tgl 9 0 \$0-2 \$0-2_in empty 0 -10 0 12 #a0a0a0 #ffffff #000000 0 1;
#X obj 281 131 tgl 9 0 \$0-3 \$0-3_in empty 0 -10 0 12 #a0a0a0 #ffffff #000000 0 1;
#X obj 292 131 tgl 9 0 \$0-4 \$0-4_in empty 0 -10 0 12 #a0a0a0 #ffffff #000000 0 1;
#X obj 303 131 tgl 9 0 \$0-5 \$0-5_in empty 0 -10 0 12 #d8fcd8 #ffffff #000000 0 1;
#X obj 314 131 tgl 9 0 \$0-6 \$0-6_in empty 0 -10 0 12 #a0a0a0 #ffffff #000000 0 1;
#X obj 325 131 tgl 9 0 \$0-7 \$0-7_in empty 0 -10 0 12 #a0a0a0 #ffffff #000000 0 1;
#X obj 336 131 tgl 9 0 \$0-8 \$0-8_in empty 0 -10 0 12 #a0a0a0 #ffffff #000000 0 1;
#X obj 347 131 tgl 9 0 \$0-9 \$0-9_in empty 0 -10 0 12 #d8fcd8 #ffffff #000000 0 1;
#X obj 358 131 tgl 9 0 \$0-10 \$0-10_in empty 0 -10 0 12 #a0a0a0 #ffffff #000000 0 1;
#X obj 369 131 tgl 9 0 \$0-11 \$0-11_in empty 0 -10 0 12 #a0a0a0 #ffffff #000000 0 1;
#X obj 380 131 tgl 9 0 \$0-12 \$0-12_in empty 0 -10 0 12 #a0a0a0 #ffffff #000000 0 1;
#X obj 391 131 tgl 9 0 \$0-12 \$0-13_in empty 0 -10 0 12 #d8fcd8 #ffffff #000000 0 1;
#X obj 402 131 tgl 9 0 \$0-14 \$0-14_in empty 0 -10 0 12 #a0a0a0 #ffffff #000000 0 1;
#X obj 413 131 tgl 9 0 \$0-15 \$0-15_in empty 0 -10 0 12 #e0e0e0 #ffffff #000000 0 1;
#X obj 424 131 tgl 9 0 \$0-16 \$0-16_in empty 0 -10 0 12 #a0a0a0 #ffffff #000000 0 1;
#X obj 435 131 tgl 9 0 \$0-17 \$0-17_in empty 0 -10 0 12 #d8fcd8 #ffffff #000000 0 1;
#X obj 446 131 tgl 9 0 \$0-18 \$0-18_in empty 0 -10 0 12 #a0a0a0 #ffffff #000000 0 1;
#X obj 457 131 tgl 9 0 \$0-19 \$0-19_in empty 0 -10 0 12 #a0a0a0 #ffffff #000000 0 1;
#X obj 468 131 tgl 9 0 \$0-20 \$0-20_in empty 0 -10 0 12 #a0a0a0 #ffffff #000000 0 1;
#X obj 479 131 tgl 9 0 \$0-21 \$0-21_in empty 0 -10 0 12 #d8fcd8 #ffffff #000000 0 1;
#X obj 490 131 tgl 9 0 \$0-22 \$0-22_in empty 0 -10 0 12 #a0a0a0 #ffffff #000000 0 1;
#X obj 501 131 tgl 9 0 \$0-23 \$0-23_in empty 0 -10 0 12 #a0a0a0 #ffffff #000000 0 1;
#X obj 512 131 tgl 9 0 \$0-24 \$0-24_in empty 0 -10 0 12 #a0a0a0 #ffffff #000000 0 1;
#X obj 523 131 tgl 9 0 \$0-25 \$0-25_in empty 0 -10 0 12 #d8fcd8 #ffffff #000000 0 1;
#X obj 534 131 tgl 9 0 \$0-26 \$0-26_in empty 0 -10 0 12 #a0a0a0 #ffffff #000000 0 1;
#X obj 545 131 tgl 9 0 \$0-27 \$0-27_in empty 0 -10 0 12 #a0a0a0 #ffffff #000000 0 1;
#X obj 556 131 tgl 9 0 \$0-28 \$0-28_in empty 0 -10 0 12 #a0a0a0 #ffffff #000000 0 1;
#X obj 567 131 tgl 9 0 \$0-29 \$0-29_in empty 0 -10 0 12 #d8fcd8 #ffffff #000000 0 1;
#X obj 578 131 tgl 9 0 \$0-30 \$0-30_in empty 0 -10 0 12 #a0a0a0 #ffffff #000000 0 1;
#X obj 589 131 tgl 9 0 \$0-31 \$0-31_in empty 0 -10 0 12 #a0a0a0 #ffffff #000000 0 1;
#X obj 600 131 tgl 9 0 \$0-32 \$0-32_in empty 0 -10 0 12 #a0a0a0 #ffffff #000000 0 1;
#X obj 259 142 tgl 9 0 \$0-33 \$0-33_in empty 0 -10 0 12 #d8fcd8 #ffffff #000000 0 1;
#X obj 270 142 tgl 9 0 \$0-34 \$0-34_in empty 0 -10 0 12 #a0a0a0 #ffffff #000000 0 1;
#X obj 281 142 tgl 9 0 \$0-35 \$0-35_in empty 0 -10 0 12 #a0a0a0 #ffffff #000000 0 1;
#X obj 292 142 tgl 9 0 \$0-36 \$0-36_in empty 0 -10 0 12 #a0a0a0 #ffffff #000000 0 1;
#X obj 303 142 tgl 9 0 \$0-37 \$0-37_in empty 0 -10 0 12 #d8fcd8 #ffffff #000000 0 1;
#X obj 314 142 tgl 9 0 \$0-38 \$0-38_in empty 0 -10 0 12 #a0a0a0 #ffffff #000000 0 1;
#X obj 325 142 tgl 9 0 \$0-39 \$0-39_in empty 0 -10 0 12 #a0a0a0 #ffffff #000000 0 1;
#X obj 336 142 tgl 9 0 \$0-40 \$0-40_in empty 0 -10 0 12 #a0a0a0 #ffffff #000000 0 1;
#X obj 347 142 tgl 9 0 \$0-41 \$0-41_in empty 0 -10 0 12 #d8fcd8 #ffffff #000000 0 1;
#X obj 358 142 tgl 9 0 \$0-42 \$0-42_in empty 0 -10 0 12 #a0a0a0 #ffffff #000000 0 1;
#X obj 369 142 tgl 9 0 \$0-43 \$0-43_in empty 0 -10 0 12 #a0a0a0 #ffffff #000000 0 1;
#X obj 380 142 tgl 9 0 \$0-44 \$0-44_in empty 0 -10 0 12 #a0a0a0 #ffffff #000000 0 1;
#X obj 391 142 tgl 9 0 \$0-45 \$0-45_in empty 0 -10 0 12 #d8fcd8 #ffffff #000000 0 1;
#X obj 402 142 tgl 9 0 \$0-46 \$0-46_in empty 0 -10 0 12 #a0a0a0 #ffffff #000000 0 1;
#X obj 413 142 tgl 9 0 \$0-47 \$0-47_in empty 0 -10 0 12 #a0a0a0 #ffffff #000000 0 1;
#X obj 424 142 tgl 9 0 \$0-48 \$0-48_in empty 0 -10 0 12 #a0a0a0 #ffffff #000000 0 1;
#X obj 435 142 tgl 9 0 \$0-49 \$0-49_in empty 0 -10 0 12 #d8fcd8 #ffffff #000000 0 1;
#X obj 446 142 tgl 9 0 \$0-50 \$0-50_in empty 0 -10 0 12 #a0a0a0 #ffffff #000000 0 1;
#X obj 457 142 tgl 9 0 \$0-51 \$0-51_in empty 0 -10 0 12 #a0a0a0 #ffffff #000000 0 1;
#X obj 468 142 tgl 9 0 \$0-52 \$0-52_in empty 0 -10 0 12 #a0a0a0 #ffffff #000000 0 1;
#X obj 479 142 tgl 9 0 \$0-53 \$0-53_in empty 0 -10 0 12 #d8fcd8 #ffffff #000000 0 1;
#X obj 490 142 tgl 9 0 \$0-54 \$0-54_in empty 0 -10 0 12 #a0a0a0 #ffffff #000000 0 1;
#X obj 501 142 tgl 9 0 \$0-55 \$0-55_in empty 0 -10 0 12 #a0a0a0 #ffffff #000000 0 1;
#X obj 512 142 tgl 9 0 \$0-56 \$0-56_in empty 0 -10 0 12 #a0a0a0 #ffffff #000000 0 1;
#X obj 523 142 tgl 9 0 \$0-57 \$0-57_in empty 0 -10 0 12 #d8fcd8 #ffffff #000000 0 1;
#X obj 534 142 tgl 9 0 \$0-58 \$0-58_in empty 0 -10 0 12 #a0a0a0 #ffffff #000000 0 1;
#X obj 545 142 tgl 9 0 \$0-59 \$0-59_in empty 0 -10 0 12 #a0a0a0 #ffffff #000000 0 1;
#X obj 556 142 tgl 9 0 \$0-60 \$0-60_in empty 0 -10 0 12 #a0a0a0 #ffffff #000000 0 1;
#X obj 567 142 tgl 9 0 \$0-61 \$0-61_in empty 0 -10 0 12 #d8fcd8 #ffffff #000000 0 1;
#X obj 578 142 tgl 9 0 \$0-62 \$0-62_in empty 0 -10 0 12 #a0a0a0 #ffffff #000000 0 1;
#X obj 589 142 tgl 9 0 \$0-63 \$0-63_in empty 0 -10 0 12 #a0a0a0 #ffffff #000000 0 1;
#X obj 600 142 tgl 9 0 \$0-64 \$0-64_in empty 0 -10 0 12 #a0a0a0 #ffffff #000000 0 1;
#X obj 109 216 tgl 19 0 empty empty empty 0 -10 0 12 #fcfcfc #000000 #000000 0 1;
#X obj 109 449 + 0;
#X floatatom 109 545 5 0 0 0 - - - 0;
#X msg 160 546 0;
#X msg 109 426 1;
#X listbox 176 687 20 0 0 0 - - - 0;
#X obj 176 664 makefilename \$0-%d_in;
#X obj 149 708 send;
#X obj 438 267 until;
#X obj 438 305 f;
#X obj 476 298 + 1;
#X obj 531 294 sel 0;
#X floatatom 438 359 5 0 0 0 - - - 0;
#X obj 438 382 + 1;
#X floatatom 439 407 5 0 0 0 - - - 0;
#X obj 476 324 mod 64;
#X obj 109 637 t b f b;
#X obj 391 592 t b f;
#X listbox 436 645 20 0 0 0 - - - 0;
#X obj 436 622 makefilename \$0-%d_in;
#X obj 409 666 send;
#X obj 637 590 t b f;
#X listbox 682 643 20 0 0 0 - - - 0;
#X obj 682 620 makefilename \$0-%d_in;
#X obj 655 664 send;
#X obj 439 442 t f f;
#X msg 498 514 set \$1;
#X msg 439 557 64;
#X msg 517 560 64;
#X obj 439 467 % 4;
#X floatatom 439 491 5 0 0 0 - - - 0;
#X obj 439 514 route 1;
#X msg 613 620 color 1;
#X obj 160 374 sel 0;
#X obj 440 234 bng 19 250 50 0 empty empty empty 0 -10 0 12 #fcfcfc #000000 #000000;
#X obj 160 351 t f f;
#X obj 253 979 outlet;
#X obj 109 130 tgl 19 0 empty empty empty 0 -10 0 12 #c6ffc7 #000000 #000000 0 1;
#X floatatom 169 205 5 0 0 0 - - - 0;
#X obj 169 182 r \$0-bpm;
#X msg 169 257 tempo \$1 permin;
#X obj 109 403 metro 1 120 permin;
#X msg 216 534 64;
#X obj 109 472 moses 64;
#X obj 188 478 bng 19 250 50 0 empty empty empty 0 -10 0 12 #fcfcfc #000000 #000000;
#X floatatom 109 592 5 0 0 0 - - - 0;
#X obj 169 227 * 4;
#X obj 300 873 list append;
#X msg 334 769 loadbang;
#X obj 334 793 bng 19 250 50 0 empty empty empty 0 -10 0 12 #fcfcfc #000000 #000000;
#X obj 334 817 f \$0;
#X obj 109 174 t f b;
#X floatatom 138 125 4 10 300 1 BPM \$0-bpm_in \$0-bpm 24;
#X msg 107 664 color 10;
#X msg 367 622 color 6;
#X text 746 99 Very limited 64 step number sequencer \; only set BPM and start.;
#X obj 129 -119 inlet;
#X obj 129 44 t b f;
#X msg 129 73 1;
#X obj 161 73 s \$0-bpm_in;
#X msg 85 29 0;
#X obj 263 -8 list trim;
#X obj 263 43 list;
#X obj 263 67 float;
#X obj 263 18 route qalb;
#X obj 129 5 sel qalboff;
#X floatatom 317 70 5 0 0 0 - - - 0;
#X obj 129 -94 t a a;
#X obj 130 -73 list;
#X msg 130 -49 \$1;
#X obj 130 -25 symbol;
#X connect 64 0 99 0;
#X connect 65 0 107 0;
#X connect 66 0 65 1;
#X connect 66 0 109 0;
#X connect 67 0 65 1;
#X connect 68 0 65 0;
#X connect 69 0 71 1;
#X connect 70 0 69 0;
#X connect 72 0 73 0;
#X connect 73 0 74 0;
#X connect 73 0 76 0;
#X connect 74 0 79 0;
#X connect 75 0 72 1;
#X connect 76 0 77 0;
#X connect 77 0 78 0;
#X connect 78 0 89 0;
#X connect 79 0 73 1;
#X connect 79 0 75 0;
#X connect 80 0 117 0;
#X connect 80 1 70 0;
#X connect 80 2 72 0;
#X connect 81 0 118 0;
#X connect 81 1 83 0;
#X connect 82 0 84 1;
#X connect 83 0 82 0;
#X connect 85 0 96 0;
#X connect 85 1 87 0;
#X connect 86 0 88 1;
#X connect 87 0 86 0;
#X connect 89 0 93 0;
#X connect 89 1 90 0;
#X connect 90 0 91 0;
#X connect 90 0 92 0;
#X connect 91 0 81 0;
#X connect 92 0 85 0;
#X connect 93 0 94 0;
#X connect 94 0 95 0;
#X connect 95 0 91 0;
#X connect 95 1 92 0;
#X connect 96 0 88 0;
#X connect 97 0 98 0;
#X connect 97 0 67 0;
#X connect 98 0 72 0;
#X connect 99 0 97 0;
#X connect 99 1 105 0;
#X connect 101 0 115 0;
#X connect 102 0 110 0;
#X connect 103 0 102 0;
#X connect 104 0 105 0;
#X connect 105 0 68 0;
#X connect 106 0 109 0;
#X connect 107 0 66 0;
#X connect 107 1 67 0;
#X connect 107 1 106 0;
#X connect 107 1 108 0;
#X connect 109 0 80 0;
#X connect 109 0 111 0;
#X connect 110 0 104 0;
#X connect 111 0 100 0;
#X connect 112 0 113 0;
#X connect 113 0 114 0;
#X connect 114 0 111 1;
#X connect 115 0 64 0;
#X connect 115 1 113 0;
#X connect 117 0 71 0;
#X connect 118 0 84 0;
#X connect 120 0 131 0;
#X connect 121 0 122 0;
#X connect 121 1 123 0;
#X connect 122 0 101 0;
#X connect 124 0 101 0;
#X connect 125 0 128 0;
#X connect 126 0 127 0;
#X connect 127 0 121 0;
#X connect 127 0 130 0;
#X connect 128 0 126 0;
#X connect 129 0 124 0;
#X connect 131 0 132 0;
#X connect 131 1 125 0;
#X connect 132 0 133 0;
#X connect 133 0 134 0;
#X connect 134 0 129 0;
#X coords 0 -1 1 1 520 60 1 100 100;
