#N canvas 864 38 864 1051 12;
#X obj 937 238 r \$0-samp_name;
#X listbox 937 352 20 0 0 0 - - - 0;
#X obj 2 33 inlet;
#X obj 425 1182 outlet~;
#X obj 485 1182 outlet~;
#X obj 937 468 soundfiler;
#X floatatom 939 493 7 0 0 0 - - - 0;
#X listbox 1006 493 16 0 0 0 - - - 0;
#N canvas 208 233 450 278 (subpatch) 0;
#X array \$0-smp 44100 float 2;
#X coords 0 278 44100 277 200 140 0;
#X restore 1143 459 graph;
#X obj 1039 376 f \$0;
#X obj 937 377 t a b;
#X obj 937 404 pack s f;
#X msg 937 435 read -resize \$1 \$2-smp;
#X msg 1006 516 \$1;
#X floatatom 1006 540 5 0 0 0 - - - 0;
#X obj 978 584 /;
#X floatatom 978 608 5 0 0 0 - - - 0;
#X obj 978 631 * 1000;
#X obj 939 516 t f f;
#X text 1026 630 ms;
#X obj 924 687 pack f f;
#X obj 1039 400 t f f;
#X obj 923 659 +;
#X obj 1079 375 bng 19 250 50 0 empty empty empty 0 -10 0 12 #fcfcfc #000000 #000000;
#X obj 212 -9 loadbang;
#X obj 212 37 s \$0-loudness_in;
#X msg 212 14 110;
#X obj 352 37 s \$0-pan_in;
#X msg 351 13 63.5;
#X msg 911 630 0;
#X obj 1025 689 t f;
#X msg 937 726 next \$1 \$2;
#X msg 1025 713 all \$1;
#X obj 854 13 inlet;
#X obj 854 61 s \$0-samp_name_in;
#X obj 854 37 list split 1;
#X obj 60 1314 s;
#X obj 60 1216 t b f;
#X obj 105 1217 t f b;
#X obj 136 1243 f \$0;
#X msg 60 1256 bang;
#X obj 105 1267 pack f f;
#X msg 105 1291 symbol \$2-\$1_in;
#X obj 465 474 t f b;
#X obj 465 497 pack f f;
#X obj 508 474 f \$0;
#N canvas 4 589 824 415 clear_manager 0;
#X obj 38 37 inlet;
#X obj 45 389 s;
#X obj 39 179 until;
#X obj 39 217 f;
#X obj 77 210 + 1;
#X obj 132 206 sel 0;
#X floatatom 77 261 5 0 0 0 - - - 0;
#X obj 38 69 t b a;
#X obj 40 322 t b a;
#X msg 37 352 0;
#X msg 71 93 \$2;
#X obj 42 292 pack f f;
#X msg 72 354 symbol \$2-\$1_in;
#X obj 77 237 mod 65;
#X connect 0 0 7 0;
#X connect 2 0 3 0;
#X connect 3 0 4 0;
#X connect 4 0 13 0;
#X connect 5 0 2 1;
#X connect 6 0 11 0;
#X connect 7 0 2 0;
#X connect 7 1 10 0;
#X connect 8 0 9 0;
#X connect 8 1 12 0;
#X connect 9 0 1 0;
#X connect 10 0 11 1;
#X connect 11 0 8 0;
#X connect 12 0 1 1;
#X connect 13 0 3 1;
#X connect 13 0 5 0;
#X connect 13 0 6 0;
#X restore 465 520 pd clear_manager;
#X obj 465 451 r \$0-clear_all;
#X obj 926 768 clone smp_player 4;
#X obj 5 62 t a;
#X obj 244 517 tgl 19 0 empty empty empty 0 -10 0 12 #fcfcfc #000000 #000000 0 1;
#X obj 37 551 spigot;
#X msg 44 363 1;
#X msg 91 363 0;
#X obj 37 651 spigot;
#X obj 244 627 tgl 19 0 empty empty empty 0 -10 0 12 #fcfcfc #000000 #000000 0 1;
#X obj 265 558 loadbang;
#X msg 265 582 1;
#X msg 198 364 0;
#X msg 246 364 1;
#X msg 131 363 0;
#X obj 1078 22 inlet;
#X floatatom 1077 78 5 0 0 0 - - - 0;
#X floatatom 132 1180 5 0 0 0 - - - 0;
#X obj 132 1157 + 0;
#X obj 65 418 keyname;
#X obj 65 441 sel 1;
#X msg 66 477 Meta_L;
#X obj 36 468 bng 19 250 50 0 empty empty empty 0 -10 0 12 #fcfcfc #000000 #000000;
#X msg 113 451 set \$1;
#X msg 37 973 1;
#X msg 47 993 2;
#X msg 57 1013 3;
#X msg 67 1033 4;
#X msg 77 1053 5;
#X msg 87 1073 6;
#X msg 97 1093 7;
#X msg 107 1113 8;
#X floatatom 180 1155 5 0 0 0 - - - 0;
#X msg 385 954 0;
#X msg 385 984 16;
#X msg 385 1014 32;
#X msg 385 1044 48;
#X msg 117 973 9;
#X msg 127 993 10;
#X msg 137 1013 11;
#X msg 147 1033 12;
#X msg 157 1053 13;
#X msg 167 1073 14;
#X msg 177 1093 15;
#X msg 187 1113 16;
#X obj 362 684 s \$0-key_on_in;
#X obj 426 962 s \$0-clear_all_in;
#X obj 101 126 cnv 19 598 33 \$0-key_on \$0-key_on_in empty 20 12 0 12 #fcfcfc #404040 0;
#X msg 371 660 color 16;
#X obj 361 556 t b f;
#X obj 361 580 &&;
#X obj 361 604 sel 1;
#X obj 406 604 loadbang;
#X msg 1091 48 0;
#X obj 12 273 sel 체;
#X obj 58 296 sel 채;
#X obj 1082 100 s \$0-instance;
#X obj 92 183 r \$0-instance;
#X obj 540 24 r \$0-instance;
#X obj 539 71 s \$0-instance_box;
#X obj 102 326 sel off holdon holdoff;
#X obj 88 221 t f f f;
#X obj 292 366 sel 체;
#X msg 292 391 bang;
#X obj 935 855 *~ 1;
#X obj 988 856 *~ 1;
#X obj 937 815 *~ 1;
#X obj 108 34 inlet;
#N canvas 828 622 912 420 receive_dyn 0;
#X obj 245 68 inlet;
#X obj 245 91 symbol \$1;
#X obj 305 39 loadbang;
#N canvas 184 720 450 300 receive-\$0 0;
#X obj 10 10 r 1108-5;
#X obj 10 50 s out-1108;
#X connect 0 0 1 0;
#X restore 421 203 pd receive-\$0;
#X obj 83 180 r out-\$0;
#X obj 83 215 outlet;
#X obj 301 197 s pd-receive-\$0;
#X obj 301 137 pack s \$0;
#X obj 293 66 t b b;
#X obj 245 115 sel symbol;
#X msg 336 88 symbol;
#X msg 301 160 clear \, obj 10 10 r \$1 \, obj 10 50 s out-\$2 \, connect 0 0 1 0;
#X text 446 29 source: seb.harmonik.ar on https://forum.pdpatchrepo.info/topic/11711/setting-receive-dynamically/2;
#X connect 0 0 1 0;
#X connect 1 0 9 0;
#X connect 2 0 8 0;
#X connect 4 0 5 0;
#X connect 7 0 11 0;
#X connect 8 0 1 0;
#X connect 8 1 10 0;
#X connect 9 1 7 0;
#X connect 10 0 9 1;
#X connect 11 0 6 0;
#X restore 699 615 pd receive_dyn;
#X floatatom 666 470 5 0 0 0 - - - 0;
#X obj 666 422 t b f;
#X obj 666 446 f \$0;
#X obj 666 493 pack f f;
#X msg 761 561 \$1-\$2;
#X obj 666 612 s;
#X obj 666 517 t b a a;
#X msg 666 557 bang \, bang;
#X msg 682 589 symbol \$1-\$2_in;
#X floatatom 699 639 5 0 0 0 - - - 0;
#X floatatom 665 397 5 0 0 0 - - - 0;
#X msg 662 331 \$1;
#X obj 108 58 s \$0-pulse;
#X obj 662 292 r \$0-pulse;
#X obj 662 366 t b f;
#X obj 663 695 spigot;
#X obj 258 131 tgl 9 0 \$0-1 \$0-1_in empty 0 -10 0 12 #c6ffc7 #000000 #000000 0 1;
#X obj 269 131 tgl 9 0 \$0-2 \$0-2_in empty 0 -10 0 12 #9f9f9f #ffffff #000000 0 1;
#X obj 280 131 tgl 9 0 \$0-3 \$0-3_in empty 0 -10 0 12 #9f9f9f #ffffff #000000 0 1;
#X obj 291 131 tgl 9 0 \$0-4 \$0-4_in empty 0 -10 0 12 #9f9f9f #ffffff #000000 0 1;
#X obj 302 131 tgl 9 0 \$0-5 \$0-5_in empty 0 -10 0 12 #c6ffc7 #000000 #000000 0 1;
#X obj 313 131 tgl 9 0 \$0-6 \$0-6_in empty 0 -10 0 12 #9f9f9f #ffffff #000000 0 1;
#X obj 324 131 tgl 9 0 \$0-7 \$0-7_in empty 0 -10 0 12 #9f9f9f #ffffff #000000 0 1;
#X obj 335 131 tgl 9 0 \$0-8 \$0-8_in empty 0 -10 0 12 #9f9f9f #ffffff #000000 0 1;
#X obj 346 131 tgl 9 0 \$0-9 \$0-9_in empty 0 -10 0 12 #c6ffc7 #000000 #000000 0 1;
#X obj 357 131 tgl 9 0 \$0-10 \$0-10_in empty 0 -10 0 12 #9f9f9f #ffffff #000000 0 1;
#X obj 368 131 tgl 9 0 \$0-11 \$0-11_in empty 0 -10 0 12 #9f9f9f #ffffff #000000 0 1;
#X obj 379 131 tgl 9 0 \$0-12 \$0-12_in empty 0 -10 0 12 #9f9f9f #ffffff #000000 0 1;
#X obj 390 131 tgl 9 0 \$0-13 \$0-13_in empty 0 -10 0 12 #c6ffc7 #000000 #000000 0 1;
#X obj 401 131 tgl 9 0 \$0-14 \$0-14_in empty 0 -10 0 12 #9f9f9f #ffffff #000000 0 1;
#X obj 412 131 tgl 9 0 \$0-15 \$0-15_in empty 0 -10 0 12 #9f9f9f #ffffff #000000 0 1;
#X obj 423 131 tgl 9 0 \$0-16 \$0-16_in empty 0 -10 0 12 #9f9f9f #ffffff #000000 0 1;
#X obj 434 131 tgl 9 0 \$0-17 \$0-17_in empty 0 -10 0 12 #c6ffc7 #000000 #000000 0 1;
#X obj 445 131 tgl 9 0 \$0-18 \$0-18_in empty 0 -10 0 12 #9f9f9f #ffffff #000000 0 1;
#X obj 456 131 tgl 9 0 \$0-19 \$0-19_in empty 0 -10 0 12 #9f9f9f #ffffff #000000 0 1;
#X obj 467 131 tgl 9 0 \$0-20 \$0-20_in empty 0 -10 0 12 #9f9f9f #ffffff #000000 0 1;
#X obj 478 131 tgl 9 0 \$0-21 \$0-21_in empty 0 -10 0 12 #c6ffc7 #000000 #000000 0 1;
#X obj 489 131 tgl 9 0 \$0-22 \$0-22_in empty 0 -10 0 12 #9f9f9f #ffffff #000000 0 1;
#X obj 500 131 tgl 9 0 \$0-23 \$0-23_in empty 0 -10 0 12 #9f9f9f #ffffff #000000 0 1;
#X obj 511 131 tgl 9 0 \$0-24 \$0-24_in empty 0 -10 0 12 #9f9f9f #ffffff #000000 0 1;
#X obj 522 131 tgl 9 0 \$0-25 \$0-25_in empty 0 -10 0 12 #c6ffc7 #000000 #000000 0 1;
#X obj 533 131 tgl 9 0 \$0-26 \$0-26_in empty 0 -10 0 12 #9f9f9f #ffffff #000000 0 1;
#X obj 544 131 tgl 9 0 \$0-27 \$0-27_in empty 0 -10 0 12 #9f9f9f #ffffff #000000 0 1;
#X obj 555 131 tgl 9 0 \$0-28 \$0-28_in empty 0 -10 0 12 #9f9f9f #ffffff #000000 0 1;
#X obj 566 131 tgl 9 0 \$0-29 \$0-29_in empty 0 -10 0 12 #c6ffc7 #000000 #000000 0 1;
#X obj 577 131 tgl 9 0 \$0-30 \$0-30_in empty 0 -10 0 12 #9f9f9f #ffffff #000000 0 1;
#X obj 588 131 tgl 9 0 \$0-31 \$0-31_in empty 0 -10 0 12 #9f9f9f #ffffff #000000 0 1;
#X obj 599 131 tgl 9 0 \$0-32 \$0-32_in empty 0 -10 0 12 #9f9f9f #ffffff #000000 0 1;
#X obj 258 142 tgl 9 0 \$0-33 \$0-33_in empty 0 -10 0 12 #c6ffc7 #000000 #000000 0 1;
#X obj 269 142 tgl 9 0 \$0-34 \$0-34_in empty 0 -10 0 12 #9f9f9f #ffffff #000000 0 1;
#X obj 280 142 tgl 9 0 \$0-35 \$0-35_in empty 0 -10 0 12 #9f9f9f #ffffff #000000 0 1;
#X obj 291 142 tgl 9 0 \$0-36 \$0-36_in empty 0 -10 0 12 #9f9f9f #ffffff #000000 0 1;
#X obj 302 142 tgl 9 0 \$0-37 \$0-37_in empty 0 -10 0 12 #c6ffc7 #000000 #000000 0 1;
#X obj 313 142 tgl 9 0 \$0-38 \$0-38_in empty 0 -10 0 12 #9f9f9f #ffffff #000000 0 1;
#X obj 324 142 tgl 9 0 \$0-39 \$0-39_in empty 0 -10 0 12 #9f9f9f #ffffff #000000 0 1;
#X obj 335 142 tgl 9 0 \$0-40 \$0-40_in empty 0 -10 0 12 #9f9f9f #ffffff #000000 0 1;
#X obj 346 142 tgl 9 0 \$0-41 \$0-41_in empty 0 -10 0 12 #c6ffc7 #000000 #000000 0 1;
#X obj 357 142 tgl 9 0 \$0-42 \$0-42_in empty 0 -10 0 12 #9f9f9f #ffffff #000000 0 1;
#X obj 368 142 tgl 9 0 \$0-43 \$0-43_in empty 0 -10 0 12 #9f9f9f #ffffff #000000 0 1;
#X obj 379 142 tgl 9 0 \$0-44 \$0-44_in empty 0 -10 0 12 #9f9f9f #ffffff #000000 0 1;
#X obj 390 142 tgl 9 0 \$0-45 \$0-45_in empty 0 -10 0 12 #c6ffc7 #000000 #000000 0 1;
#X obj 401 142 tgl 9 0 \$0-46 \$0-46_in empty 0 -10 0 12 #9f9f9f #ffffff #000000 0 1;
#X obj 412 142 tgl 9 0 \$0-47 \$0-47_in empty 0 -10 0 12 #9f9f9f #ffffff #000000 0 1;
#X obj 423 142 tgl 9 0 \$0-48 \$0-48_in empty 0 -10 0 12 #9f9f9f #ffffff #000000 0 1;
#X obj 434 142 tgl 9 0 \$0-49 \$0-49_in empty 0 -10 0 12 #c6ffc7 #000000 #000000 0 1;
#X obj 445 142 tgl 9 0 \$0-50 \$0-50_in empty 0 -10 0 12 #9f9f9f #ffffff #000000 0 1;
#X obj 456 142 tgl 9 0 \$0-51 \$0-51_in empty 0 -10 0 12 #9f9f9f #ffffff #000000 0 1;
#X obj 467 142 tgl 9 0 \$0-52 \$0-52_in empty 0 -10 0 12 #9f9f9f #ffffff #000000 0 1;
#X obj 478 142 tgl 9 0 \$0-53 \$0-53_in empty 0 -10 0 12 #c6ffc7 #000000 #000000 0 1;
#X obj 489 142 tgl 9 0 \$0-54 \$0-54_in empty 0 -10 0 12 #9f9f9f #ffffff #000000 0 1;
#X obj 500 142 tgl 9 0 \$0-55 \$0-55_in empty 0 -10 0 12 #9f9f9f #ffffff #000000 0 1;
#X obj 511 142 tgl 9 0 \$0-56 \$0-56_in empty 0 -10 0 12 #9f9f9f #ffffff #000000 0 1;
#X obj 522 142 tgl 9 0 \$0-57 \$0-57_in empty 0 -10 0 12 #c6ffc7 #000000 #000000 0 1;
#X obj 533 142 tgl 9 0 \$0-58 \$0-58_in empty 0 -10 0 12 #9f9f9f #ffffff #000000 0 1;
#X obj 544 142 tgl 9 0 \$0-59 \$0-59_in empty 0 -10 0 12 #9f9f9f #ffffff #000000 0 1;
#X obj 555 142 tgl 9 0 \$0-60 \$0-60_in empty 0 -10 0 12 #9f9f9f #ffffff #000000 0 1;
#X obj 566 142 tgl 9 0 \$0-61 \$0-61_in empty 0 -10 0 12 #c6ffc7 #000000 #000000 0 1;
#X obj 577 142 tgl 9 0 \$0-62 \$0-62_in empty 0 -10 0 12 #9f9f9f #ffffff #000000 0 1;
#X obj 588 142 tgl 9 0 \$0-63 \$0-63_in empty 0 -10 0 12 #9f9f9f #ffffff #000000 0 1;
#X obj 599 142 tgl 9 0 \$0-64 \$0-64_in empty 0 -10 0 12 #9f9f9f #ffffff #000000 0 1;
#X obj 614 130 bng 20 250 50 0 \$0-clear_all \$0-clear_all_in clear 25 10 0 10 #ff0400 #000000 #000000;
#X listbox 104 134 20 0 0 0 - \$0-samp_name_in \$0-samp_name 0;
#X listbox 492 107 20 0 0 0 - \$0-instance_box \$0-instance_box_out 0;
#X msg 362 632 color 0;
#X obj 88 254 makefilename smp%don;
#X obj 98 276 makefilename smp%doff;
#X obj 324 338 makefilename smp%dclear;
#X obj 539 47 makefilename smp%d;
#X obj 718 1180 outlet;
#X obj 37 924 route 체 q w e r t z u i a s d f g h j k v b n m p Down Up, f 64;
#X obj 713 864 r \$0-instance;
#X floatatom 713 888 5 0 0 0 - - - 0;
#X obj 9 339 s \$0-on;
#X obj 1025 49 r \$0-on;
#X msg 1123 63 1;
#X obj 691 1056 makefilename smp%don;
#X obj 689 1098 makefilename smp%doff;
#X msg 571 873 2;
#X msg 632 874 0;
#X msg 1030 83 bang;
#X msg 632 851 set \$1;
#X obj 632 827 - 1;
#X msg 572 851 set \$1;
#X obj 572 827 + 1;
#X msg 608 1045 set \$1;
#X msg 608 1071 1;
#X obj 454 1009 t b b;
#X obj 496 1009 t b b;
#X obj 454 1033 del 1;
#X obj 496 1033 del 1;
#X obj 35 103 list;
#X msg 35 127 \$1;
#X obj 35 151 symbol;
#X connect 0 0 1 0;
#X connect 1 0 10 0;
#X connect 2 0 49 0;
#X connect 5 0 6 0;
#X connect 5 1 7 0;
#X connect 6 0 18 0;
#X connect 7 0 13 0;
#X connect 9 0 21 0;
#X connect 10 0 11 0;
#X connect 10 1 9 0;
#X connect 11 0 12 0;
#X connect 12 0 5 0;
#X connect 13 0 14 0;
#X connect 14 0 15 1;
#X connect 15 0 16 0;
#X connect 16 0 17 0;
#X connect 17 0 20 1;
#X connect 18 0 22 1;
#X connect 18 1 15 0;
#X connect 20 0 31 0;
#X connect 21 0 11 1;
#X connect 21 1 30 0;
#X connect 22 0 20 0;
#X connect 23 0 9 0;
#X connect 24 0 26 0;
#X connect 24 0 28 0;
#X connect 26 0 25 0;
#X connect 28 0 27 0;
#X connect 29 0 22 0;
#X connect 30 0 32 0;
#X connect 31 0 48 0;
#X connect 32 0 48 1;
#X connect 33 0 35 0;
#X connect 35 0 34 0;
#X connect 37 0 40 0;
#X connect 37 1 38 0;
#X connect 38 0 41 0;
#X connect 38 1 39 0;
#X connect 39 0 41 1;
#X connect 40 0 36 0;
#X connect 41 0 42 0;
#X connect 42 0 36 1;
#X connect 43 0 44 0;
#X connect 43 1 45 0;
#X connect 44 0 46 0;
#X connect 45 0 44 1;
#X connect 47 0 43 0;
#X connect 48 0 112 0;
#X connect 49 0 225 0;
#X connect 50 0 51 1;
#X connect 50 0 95 0;
#X connect 51 0 54 0;
#X connect 52 0 50 0;
#X connect 53 0 50 0;
#X connect 54 0 204 0;
#X connect 55 0 54 1;
#X connect 55 0 96 0;
#X connect 56 0 57 0;
#X connect 57 0 55 0;
#X connect 58 0 55 0;
#X connect 59 0 55 0;
#X connect 60 0 50 0;
#X connect 61 0 62 0;
#X connect 62 0 102 0;
#X connect 63 0 37 0;
#X connect 64 0 63 0;
#X connect 65 0 66 0;
#X connect 65 1 69 0;
#X connect 66 0 67 0;
#X connect 66 0 68 0;
#X connect 67 0 51 0;
#X connect 69 0 67 0;
#X connect 70 0 64 0;
#X connect 71 0 64 0;
#X connect 72 0 64 0;
#X connect 73 0 64 0;
#X connect 74 0 64 0;
#X connect 75 0 64 0;
#X connect 76 0 64 0;
#X connect 77 0 64 0;
#X connect 78 0 64 1;
#X connect 79 0 78 0;
#X connect 80 0 78 0;
#X connect 81 0 78 0;
#X connect 82 0 78 0;
#X connect 83 0 64 0;
#X connect 84 0 64 0;
#X connect 85 0 64 0;
#X connect 86 0 64 0;
#X connect 87 0 64 0;
#X connect 88 0 64 0;
#X connect 89 0 64 0;
#X connect 90 0 64 0;
#X connect 94 0 91 0;
#X connect 95 0 96 0;
#X connect 95 1 96 1;
#X connect 96 0 97 0;
#X connect 97 0 94 0;
#X connect 97 1 198 0;
#X connect 98 0 198 0;
#X connect 99 0 62 0;
#X connect 100 0 52 0;
#X connect 100 0 207 0;
#X connect 100 1 101 0;
#X connect 101 0 53 0;
#X connect 101 1 106 0;
#X connect 103 0 107 0;
#X connect 104 0 202 0;
#X connect 106 0 60 0;
#X connect 106 1 58 0;
#X connect 106 2 59 0;
#X connect 106 3 108 0;
#X connect 107 0 199 0;
#X connect 107 1 200 0;
#X connect 107 2 201 0;
#X connect 108 0 109 0;
#X connect 109 0 43 0;
#X connect 110 0 3 0;
#X connect 111 0 4 0;
#X connect 112 0 110 0;
#X connect 112 0 111 0;
#X connect 113 0 127 0;
#X connect 114 0 124 0;
#X connect 115 0 118 0;
#X connect 116 0 117 0;
#X connect 116 1 118 1;
#X connect 117 0 115 0;
#X connect 118 0 121 0;
#X connect 119 0 114 0;
#X connect 121 0 122 0;
#X connect 121 1 123 0;
#X connect 121 2 119 0;
#X connect 122 0 120 0;
#X connect 123 0 120 1;
#X connect 124 0 130 1;
#X connect 125 0 116 0;
#X connect 126 0 129 0;
#X connect 128 0 126 0;
#X connect 129 0 130 0;
#X connect 129 1 125 0;
#X connect 130 0 29 0;
#X connect 198 0 91 0;
#X connect 199 0 100 1;
#X connect 200 0 101 1;
#X connect 201 0 108 1;
#X connect 202 0 105 0;
#X connect 204 1 70 0;
#X connect 204 2 71 0;
#X connect 204 3 72 0;
#X connect 204 4 73 0;
#X connect 204 5 74 0;
#X connect 204 6 75 0;
#X connect 204 7 76 0;
#X connect 204 8 77 0;
#X connect 204 9 83 0;
#X connect 204 10 84 0;
#X connect 204 11 85 0;
#X connect 204 12 86 0;
#X connect 204 13 87 0;
#X connect 204 14 88 0;
#X connect 204 15 89 0;
#X connect 204 16 90 0;
#X connect 204 17 79 0;
#X connect 204 18 80 0;
#X connect 204 19 81 0;
#X connect 204 20 82 0;
#X connect 204 21 92 0;
#X connect 204 22 221 0;
#X connect 204 23 222 0;
#X connect 205 0 206 0;
#X connect 206 0 216 0;
#X connect 206 0 218 0;
#X connect 206 0 219 0;
#X connect 208 0 214 0;
#X connect 209 0 62 0;
#X connect 210 0 203 0;
#X connect 211 0 203 0;
#X connect 212 0 210 0;
#X connect 213 0 210 0;
#X connect 214 0 62 0;
#X connect 215 0 213 0;
#X connect 216 0 215 0;
#X connect 217 0 212 0;
#X connect 218 0 217 0;
#X connect 219 0 220 0;
#X connect 220 0 211 0;
#X connect 221 0 223 0;
#X connect 221 1 220 0;
#X connect 222 0 224 0;
#X connect 222 1 220 0;
#X connect 223 0 212 0;
#X connect 224 0 213 0;
#X connect 225 0 226 0;
#X connect 226 0 227 0;
#X connect 227 0 100 0;
#X coords 0 -1 1 1 600 60 1 100 100;
