#N struct 1034-path-template float x float y array 1034-data 1034-data-template;
#N struct 1034-data-template float x float y;
#N canvas 1 38 1727 1051 12;
#X obj 250 358 s pulse;
#X obj 252 174 s feed;
#X obj 250 269 r feed;
#X obj 252 69 shibboleth;
#X obj 250 292 qalb;
#X obj 249 430 sampler;
#X obj 644 386 loadbang;
#X obj 842 386 loadbang;
#X msg 842 408 1;
#X obj 446 408 r pulse;
#X obj 249 408 r feed;
#X obj 705 775 catch~ l;
#X obj 855 775 catch~ r;
#X obj 249 493 throw~ l;
#X obj 545 493 throw~ r;
#X obj 705 902 dac~;
#X obj 705 799 *~ 0.4;
#X obj 855 799 *~ 0.4;
#X obj 971 415 flute;
#X obj 971 392 r feed;
#X obj 1017 295 r feed;
#X obj 1066 295 r pulse;
#X obj 971 470 throw~ l;
#X obj 1064 470 throw~ r;
#X obj 1193 428 bass;
#X obj 1310 387 loadbang;
#X msg 1310 409 1;
#X obj 1084 374 loadbang;
#X msg 1084 396 1;
#X obj 1193 404 r feed;
#X obj 1122 272 loadbang;
#X msg 1122 294 1;
#X obj 1239 293 r feed;
#X obj 1288 293 r pulse;
#X obj 1344 270 loadbang;
#X msg 1344 292 2;
#X obj 1193 482 throw~ c;
#X obj 773 775 catch~ c;
#X obj 1017 323 katib;
#X obj 1239 321 katib;
#X obj 818 72 cnv 19 300 100 empty empty grundt\ n 20 40 0 50 #bbbbbb #c6ffc7 0;
#X obj 1009 99 bng 30 250 50 0 \$0-grundton_out \$0-grundton empty 0 -10 0 12 #bbbbbb #c6ffc7 #000000;
#X obj 1128 139 s \$0-grundton;
#X obj 1128 51 r pulse;
#X obj 1128 116 sel 0;
#X floatatom 1128 73 5 0 0 0 - - - 0;
#X obj 1128 93 % 4;
#N canvas 1107 284 450 300 keystrokes 0;
#X listbox 240 154 20 0 0 0 - - - 0;
#X obj 240 107 list store;
#X obj 105 85 keyname;
#X obj 105 109 tgl 19 0 empty empty empty 0 -10 0 12 #fcfcfc #000000 #000000 0 1;
#X msg 150 133 list Meta_L;
#X obj 105 133 sel 1;
#X msg 150 109 set list \$1;
#X obj 150 157 t l l;
#X obj 240 59 loadbang;
#X obj 240 131 list split 10;
#X msg 240 83 0 0 0 0 0 0 0 0 0 0;
#X obj 240 176 outlet;
#X connect 0 0 1 1;
#X connect 0 0 11 0;
#X connect 1 0 9 0;
#X connect 2 0 3 0;
#X connect 2 1 6 0;
#X connect 3 0 5 0;
#X connect 4 0 7 0;
#X connect 5 0 4 0;
#X connect 6 0 4 0;
#X connect 7 0 1 0;
#X connect 8 0 10 0;
#X connect 9 0 0 0;
#X connect 10 0 1 0;
#X restore 252 207 pd keystrokes;
#X listbox 252 231 46 0 0 0 - - - 16;
#X obj 705 877 hip~ 20;
#X obj 785 879 hip~ 20;
#X obj 802 493 s feed;
#N canvas 303 428 781 491 lurker 0;
#X obj 372 63 r feed;
#X msg 372 142 set \$1;
#X msg 372 166 b1on;
#X listbox 102 138 20 0 0 0 - \$0-state1-in \$0-state1-out 0;
#X listbox 372 87 20 0 0 0 - - - 0;
#X obj 436 142 s \$0-state1-in;
#X listbox 102 168 20 0 0 0 - \$0-state2-in \$0-state2-out 0;
#X listbox 102 198 20 0 0 0 - \$0-state3-in \$0-state3-out 0;
#X listbox 102 228 20 0 0 0 - \$0-state4-in \$0-state4-out 0;
#X obj 372 190 list;
#X listbox 372 214 20 0 0 0 - - - 0;
#X obj 372 117 t a a b;
#X msg 418 166 bang;
#X msg 372 292 set \$1;
#X msg 372 316 filon;
#X obj 372 340 list;
#X listbox 372 364 20 0 0 0 - - - 0;
#X obj 372 267 t a a b;
#X msg 418 316 bang;
#X obj 436 292 s \$0-state2-in;
#X msg 582 142 set \$1;
#X msg 582 166 off;
#X obj 582 190 list;
#X listbox 582 214 20 0 0 0 - - - 0;
#X obj 582 117 t a a b;
#X msg 628 166 bang;
#X msg 582 292 set \$1;
#X msg 582 316 rec2on;
#X obj 582 340 list;
#X listbox 582 364 20 0 0 0 - - - 0;
#X obj 582 267 t a a b;
#X msg 628 316 bang;
#X obj 646 142 s \$0-state3-in;
#X obj 646 292 s \$0-state4-in;
#X obj 657 27 loadbang;
#X obj 657 75 list;
#X msg 657 51 4 \, 3 \, 2 \, 1;
#X connect 0 0 4 0;
#X connect 1 0 2 0;
#X connect 2 0 9 0;
#X connect 4 0 11 0;
#X connect 9 0 10 0;
#X connect 10 0 17 0;
#X connect 11 0 1 0;
#X connect 11 1 5 0;
#X connect 11 2 12 0;
#X connect 12 0 2 0;
#X connect 13 0 14 0;
#X connect 14 0 15 0;
#X connect 15 0 16 0;
#X connect 15 0 24 0;
#X connect 17 0 13 0;
#X connect 17 1 19 0;
#X connect 17 2 18 0;
#X connect 18 0 14 0;
#X connect 20 0 21 0;
#X connect 21 0 22 0;
#X connect 22 0 23 0;
#X connect 23 0 30 0;
#X connect 24 0 20 0;
#X connect 24 1 32 0;
#X connect 24 2 25 0;
#X connect 25 0 21 0;
#X connect 26 0 27 0;
#X connect 27 0 28 0;
#X connect 28 0 29 0;
#X connect 30 0 26 0;
#X connect 30 1 33 0;
#X connect 30 2 31 0;
#X connect 31 0 27 0;
#X connect 34 0 36 0;
#X connect 35 0 4 0;
#X connect 36 0 35 0;
#X coords 0 -1 1 1 150 150 1 100 100;
#X restore 564 69 pd lurker;
#X obj 721 72 r feed;
#X obj 1095 578 r feed;
#X obj 1144 578 r pulse;
#X obj 1200 555 loadbang;
#X obj 1095 606 katib;
#X msg 1200 577 3;
#N canvas 150 188 450 300 helper 0;
#X obj 240 149 tgl 19 0 empty empty empty 0 -10 0 12 #fcfcfc #000000 #000000 0 1;
#X msg 240 173 \; pd dsp \$1;
#X obj 240 240 spigot;
#X obj 240 216 r feed;
#X obj 293 241 tgl 19 0 empty empty empty 0 -10 0 12 #fcfcfc #000000 #000000 0 1;
#X obj 240 264 print;
#X obj 247 20 inlet;
#X obj 247 44 list;
#X msg 247 68 \$1;
#X obj 247 92 symbol;
#X obj 240 125 sel dsp print;
#X obj 112 147 tgl 19 0 \$0-dsp_out \$0-dsp_in dsp 25 10 0 12 #fcfcfc #000000 #000000 0 1;
#X obj 333 168 s \$0-dsp_in;
#X obj 112 177 tgl 19 0 \$0-print_out \$0-print_in print 25 10 0 12 #fcfcfc #000000 #000000 0 1;
#X obj 331 260 s \$0-print_in;
#X connect 0 0 1 0;
#X connect 0 0 12 0;
#X connect 2 0 5 0;
#X connect 3 0 2 0;
#X connect 4 0 2 1;
#X connect 4 0 14 0;
#X connect 6 0 7 0;
#X connect 7 0 8 0;
#X connect 8 0 9 0;
#X connect 9 0 10 0;
#X connect 10 0 0 0;
#X connect 10 1 4 0;
#X coords 0 -1 1 1 85 150 1 100 100;
#X restore 721 104 pd helper;
#X obj 1222 676 r feed;
#X obj 1287 568 r feed;
#X obj 1336 568 r pulse;
#X obj 1392 545 loadbang;
#X obj 1287 596 katib;
#X msg 1392 567 4;
#X obj 1223 700 one-shot;
#X obj 1386 629 loadbang;
#X msg 1443 651 1;
#X obj 999 681 multi-sampler;
#X obj 1119 658 loadbang;
#X msg 1179 658 1;
#X obj 999 660 r feed;
#X obj 999 766 throw~ l;
#X obj 1092 766 throw~ r;
#X msg 644 408 smp/808/Crash.wav;
#X obj 249 570 sampler;
#X obj 644 526 loadbang;
#X obj 842 526 loadbang;
#X obj 446 548 r pulse;
#X obj 249 548 r feed;
#X obj 249 633 throw~ l;
#X obj 545 633 throw~ r;
#X obj 802 633 s feed;
#X msg 644 548 smp/808/Ride.wav;
#X msg 842 548 2;
#X obj 758 928 throw~ \$0-vis;
#X obj 382 767 catch~ \$0-vis;
#X obj 758 904 *~ 30;
#X obj 382 792 visualizer_3D;
#X text 379 934 scope taken from ben_wesch's simplex~ help file;
#X obj 705 853 clip~ -0.9 0.9;
#X obj 815 853 clip~ -0.9 0.9;
#X obj 766 826 filter;
#X obj 876 826 r feed;
#X obj 971 443 delayer, f 23;
#X obj 1078 419 r feed;
#X obj 1128 419 r pulse;
#X msg 1298 666 smp/808/Crash.wav;
#X obj 1224 788 delayer, f 23;
#X obj 1331 764 r feed;
#X obj 1381 764 r pulse;
#X obj 1223 816 throw~ l;
#X obj 1316 816 throw~ r;
#X connect 2 0 4 0;
#X connect 3 0 1 0;
#X connect 4 0 0 0;
#X connect 5 0 13 0;
#X connect 5 1 14 0;
#X connect 5 2 51 0;
#X connect 6 0 75 0;
#X connect 7 0 8 0;
#X connect 8 0 5 3;
#X connect 9 0 5 1;
#X connect 10 0 5 0;
#X connect 11 0 16 0;
#X connect 12 0 17 0;
#X connect 16 0 93 0;
#X connect 17 0 93 1;
#X connect 18 0 95 0;
#X connect 18 1 95 1;
#X connect 19 0 18 0;
#X connect 20 0 38 0;
#X connect 21 0 38 1;
#X connect 24 0 36 0;
#X connect 25 0 26 0;
#X connect 26 0 24 2;
#X connect 27 0 28 0;
#X connect 28 0 18 2;
#X connect 29 0 24 0;
#X connect 30 0 31 0;
#X connect 31 0 38 2;
#X connect 32 0 39 0;
#X connect 33 0 39 1;
#X connect 34 0 35 0;
#X connect 35 0 39 2;
#X connect 37 0 16 0;
#X connect 37 0 17 0;
#X connect 38 0 18 1;
#X connect 39 0 24 1;
#X connect 43 0 45 0;
#X connect 44 0 42 0;
#X connect 45 0 46 0;
#X connect 46 0 44 0;
#X connect 47 0 48 0;
#X connect 49 0 15 0;
#X connect 49 0 88 0;
#X connect 50 0 15 1;
#X connect 50 0 88 0;
#X connect 53 0 59 0;
#X connect 54 0 57 0;
#X connect 55 0 57 1;
#X connect 56 0 58 0;
#X connect 57 0 69 1;
#X connect 58 0 57 2;
#X connect 60 0 66 0;
#X connect 61 0 64 0;
#X connect 62 0 64 1;
#X connect 63 0 65 0;
#X connect 64 0 66 1;
#X connect 65 0 64 2;
#X connect 66 0 99 0;
#X connect 66 1 99 1;
#X connect 67 0 98 0;
#X connect 67 0 68 0;
#X connect 68 0 66 3;
#X connect 69 0 73 0;
#X connect 69 1 74 0;
#X connect 70 0 71 0;
#X connect 71 0 69 2;
#X connect 72 0 69 0;
#X connect 75 0 5 2;
#X connect 76 0 81 0;
#X connect 76 1 82 0;
#X connect 76 2 83 0;
#X connect 77 0 84 0;
#X connect 78 0 85 0;
#X connect 79 0 76 1;
#X connect 80 0 76 0;
#X connect 84 0 76 2;
#X connect 85 0 76 3;
#X connect 87 0 89 0;
#X connect 88 0 86 0;
#X connect 91 0 49 0;
#X connect 92 0 50 0;
#X connect 93 0 91 0;
#X connect 93 1 92 0;
#X connect 94 0 93 2;
#X connect 95 0 22 0;
#X connect 95 1 23 0;
#X connect 96 0 95 2;
#X connect 97 0 95 3;
#X connect 98 0 66 2;
#X connect 99 0 102 0;
#X connect 99 1 103 0;
#X connect 100 0 99 2;
#X connect 101 0 99 3;
