#N canvas 53 351 772 650 12;
#X obj 335 632 vline~;
#X obj 332 677 tabread4~;
#X msg 330 600 0 \, \$1 \$2;
#X obj 303 764 outlet~;
#X obj 414 714 env~;
#X floatatom 418 748 5 0 0 0 - - - 0;
#X msg 441 591 set \$1-smp;
#X obj 212 522 loadbang;
#X obj 212 546 del 1;
#X obj 382 752 env~;
#X floatatom 386 786 5 0 0 0 - - - 0;
#X obj 267 713 vline~;
#X obj 328 722 *~;
#X msg 227 680 0;
#X msg 257 650 1 \, 0 1 \$2;
#X obj 286 537 t a a;
#X obj 282 266 soundfiler;
#X floatatom 284 291 7 0 0 0 - - - 0;
#X listbox 351 291 16 0 0 0 - - - 0;
#X obj 384 174 f \$0;
#X obj 282 175 t a b;
#X obj 282 202 pack s f;
#X msg 282 233 read -resize \$1 \$2-smp;
#X msg 351 314 \$1;
#X floatatom 351 338 5 0 0 0 - - - 0;
#X obj 352 362 /;
#X floatatom 352 386 5 0 0 0 - - - 0;
#X obj 352 409 * 1000;
#X obj 284 314 t f f;
#X text 371 428 ms;
#X obj 272 416 pack f f;
#X obj 384 198 t f f;
#X obj 272 392 +;
#X obj 424 173 bng 19 250 50 0 empty empty empty 0 -10 0 12 #fcfcfc #000000 #000000;
#X msg 113 146 0;
#X obj 418 324 t f;
#N canvas 208 233 450 278 (subpatch) 0;
#X array \$0-smp 44100 float 2;
#X coords 0 278 44100 277 200 140 0;
#X restore 514 152 graph;
#X obj 112 106 inlet;
#X obj 280 111 inlet;
#X text 152 107 bang;
#X text 328 111 sample path;
#X connect 0 0 1 0;
#X connect 0 0 4 0;
#X connect 1 0 9 0;
#X connect 1 0 12 0;
#X connect 2 0 0 0;
#X connect 4 0 5 0;
#X connect 6 0 1 0;
#X connect 7 0 8 0;
#X connect 8 0 13 0;
#X connect 9 0 10 0;
#X connect 11 0 12 1;
#X connect 12 0 3 0;
#X connect 13 0 11 0;
#X connect 14 0 11 0;
#X connect 15 0 14 0;
#X connect 15 1 2 0;
#X connect 16 0 17 0;
#X connect 16 1 18 0;
#X connect 17 0 28 0;
#X connect 18 0 23 0;
#X connect 19 0 31 0;
#X connect 20 0 21 0;
#X connect 20 1 19 0;
#X connect 21 0 22 0;
#X connect 22 0 16 0;
#X connect 23 0 24 0;
#X connect 24 0 25 1;
#X connect 25 0 26 0;
#X connect 26 0 27 0;
#X connect 27 0 30 1;
#X connect 28 0 32 1;
#X connect 28 1 25 0;
#X connect 30 0 15 0;
#X connect 31 0 21 1;
#X connect 31 1 35 0;
#X connect 32 0 30 0;
#X connect 33 0 19 0;
#X connect 34 0 32 0;
#X connect 35 0 6 0;
#X connect 37 0 34 0;
#X connect 38 0 20 0;
