#N canvas 53 351 486 389 12;
#X obj 162 157 vline~;
#X obj 159 202 tabread4~;
#X msg 157 125 0 \, \$1 \$2;
#X obj 130 289 outlet~;
#X obj 113 38 inlet;
#X obj 252 53 inlet;
#X obj 241 239 env~;
#X floatatom 245 273 5 0 0 0 - - - 0;
#X msg 268 116 set \$1-smp;
#X obj 39 47 loadbang;
#X obj 39 71 del 1;
#X obj 209 277 env~;
#X floatatom 213 311 5 0 0 0 - - - 0;
#X obj 94 238 vline~;
#X obj 155 247 *~;
#X msg 54 205 0;
#X msg 84 175 1 \, 0 1 \$2;
#X obj 113 62 t a a;
#X connect 0 0 1 0;
#X connect 0 0 6 0;
#X connect 1 0 11 0;
#X connect 1 0 14 0;
#X connect 2 0 0 0;
#X connect 4 0 17 0;
#X connect 5 0 8 0;
#X connect 6 0 7 0;
#X connect 8 0 1 0;
#X connect 9 0 10 0;
#X connect 10 0 15 0;
#X connect 11 0 12 0;
#X connect 13 0 14 1;
#X connect 14 0 3 0;
#X connect 15 0 13 0;
#X connect 16 0 13 0;
#X connect 17 0 16 0;
#X connect 17 1 2 0;
