#N canvas 208 246 1168 789 12;
#X obj 95 65 inlet~;
#X obj 175 65 inlet~;
#X obj 95 503 outlet~;
#X obj 175 503 outlet~;
#X obj 819 63 inlet;
#X text 866 61 feed;
#X obj 1161 479 loadbang;
#X obj 807 116 cnv 19 320 400 empty empty empty 20 12 0 12 #dfdfdf #404040 0;
#X obj 931 315 tgl 19 0 empty empty empty 0 -10 0 12 #fcfcfc #000000 #000000 0 1;
#X obj 867 349 spigot;
#X msg 811 271 1;
#X msg 858 271 0;
#X obj 865 316 key;
#X floatatom 827 331 5 0 0 0 - - - 0;
#X obj 867 379 spigot;
#X obj 931 355 tgl 19 0 empty empty empty 0 -10 0 12 #fcfcfc #000000 #000000 0 1;
#X obj 960 355 loadbang;
#X msg 960 379 1;
#X msg 965 272 0;
#X msg 1013 272 1;
#X text 947 119 example filter patch \; inside of piano1;
#X msg 898 271 0;
#X obj 811 153 t a a, f 42;
#X obj 811 175 list;
#X msg 811 199 \$1;
#X obj 811 223 symbol;
#X msg 867 428 10;
#X msg 877 458 1;
#X msg 887 488 2;
#X msg 917 428 3;
#X msg 927 458 4;
#X msg 937 488 5;
#X msg 967 428 6;
#X msg 977 458 7;
#X msg 987 488 8;
#X msg 1007 428 9;
#X msg 1161 503 10;
#X obj 1094 217 route;
#X obj 867 403 sel 48 49 50 51 52 53 54 55 56 57 60;
#X obj 101 101 cnv 18 98 18 empty \$0-indicator stutter 3 10 0 12 #fcfcfc #404040 0;
#X obj 659 556 s \$0-indicator;
#X msg 659 526 color 16;
#X msg 732 524 color 0;
#X obj 717 451 t b f;
#X obj 717 475 &&;
#X obj 717 499 sel 1;
#X msg 1094 434 10;
#X msg 1094 460 0;
#X msg 1163 535 1;
#X msg 1082 564 2;
#X obj 811 247 sel stuon stuoff off holdon holdoff;
#X obj 264 204 delwrite~ \$0-left 5000;
#X obj 267 283 delread~ \$0-left 5000;
#X obj 97 162 *~ 1;
#X connect 0 0 53 0;
#X connect 4 0 22 0;
#X connect 6 0 36 0;
#X connect 6 0 48 0;
#X connect 8 0 9 1;
#X connect 8 0 43 0;
#X connect 9 0 14 0;
#X connect 10 0 8 0;
#X connect 11 0 8 0;
#X connect 12 0 9 0;
#X connect 12 0 13 0;
#X connect 14 0 38 0;
#X connect 15 0 14 1;
#X connect 15 0 44 0;
#X connect 16 0 17 0;
#X connect 17 0 15 0;
#X connect 18 0 15 0;
#X connect 19 0 15 0;
#X connect 21 0 8 0;
#X connect 22 0 23 0;
#X connect 22 1 37 0;
#X connect 23 0 24 0;
#X connect 24 0 25 0;
#X connect 25 0 50 0;
#X connect 26 0 48 0;
#X connect 27 0 49 0;
#X connect 28 0 49 0;
#X connect 29 0 49 0;
#X connect 30 0 49 0;
#X connect 31 0 49 0;
#X connect 32 0 49 0;
#X connect 33 0 49 0;
#X connect 34 0 49 0;
#X connect 38 0 26 0;
#X connect 38 1 27 0;
#X connect 38 2 28 0;
#X connect 38 3 29 0;
#X connect 38 4 30 0;
#X connect 38 5 31 0;
#X connect 38 6 32 0;
#X connect 38 7 33 0;
#X connect 38 8 34 0;
#X connect 38 9 35 0;
#X connect 38 10 46 0;
#X connect 41 0 40 0;
#X connect 42 0 40 0;
#X connect 43 0 44 0;
#X connect 43 1 44 1;
#X connect 44 0 45 0;
#X connect 45 0 41 0;
#X connect 45 1 42 0;
#X connect 46 0 47 0;
#X connect 47 0 8 0;
#X connect 47 0 48 0;
#X connect 50 0 10 0;
#X connect 50 1 11 0;
#X connect 50 2 21 0;
#X connect 50 3 18 0;
#X connect 50 4 19 0;
#X coords 0 -1 1 1 100 20 1 100 100;
