#N struct 1145-path-template float x float y array 1145-data 1145-data-template;
#N struct 1145-data-template float x float y;
#N canvas 343 74 1385 978 12;
#X obj 866 356 cos~;
#N canvas 150 175 450 300 sin~ 0;
#X obj 73 71 inlet~;
#X obj 73 194 outlet~;
#X obj 73 144 cos~;
#X obj 73 120 -~ 0.25;
#X connect 0 0 3 0;
#X connect 2 0 1 0;
#X connect 3 0 2 0;
#X restore 809 356 pd sin~;
#X obj 809 428 snake~ in 3;
#X obj 809 377 *~;
#X obj 866 377 *~;
#X obj 809 527 *~;
#N canvas 208 208 450 300 y2r 0;
#X obj 62 71 pow~ 2;
#X obj 62 113 +~ 1;
#X obj 62 92 *~ -1;
#X obj 62 134 sqrt~;
#X obj 62 49 inlet~;
#X obj 62 155 outlet~;
#X connect 0 0 2 0;
#X connect 1 0 3 0;
#X connect 2 0 1 0;
#X connect 3 0 5 0;
#X connect 4 0 0 0;
#X restore 904 361 pd y2r;
#N canvas 234 234 450 300 0..1 0;
#X obj 46 83 -~ 1;
#X obj 46 61 *~ 2;
#X obj 47 30 inlet~;
#X obj 46 114 outlet~;
#X connect 0 0 3 0;
#X connect 1 0 0 0;
#X connect 2 0 1 0;
#X restore 904 335 pd 0..1 to -1..1;
#X text 834 237 <-- activate to see visualizations below;
#N canvas 63 88 450 300 dsp-switch 0;
#X msg 119 114 set 0;
#X msg 60 85 set 1;
#X obj 60 56 receive pd-dsp-started;
#X obj 119 85 receive pd-dsp-stopped;
#X obj 60 160 tgl 19 0 empty empty dsp 0 -8 0 10 #c6daff #4d4d4d #373737 0 1;
#X obj 60 184 outlet;
#X connect 0 0 4 0;
#X connect 1 0 4 0;
#X connect 2 0 1 0;
#X connect 3 0 0 0;
#X connect 4 0 5 0;
#X coords 0 -1 1 1 19 19 2 60 160;
#X restore 809 236 pd dsp-switch;
#X msg 809 260 \; pd dsp \$1;
#X obj 824 476 +~ 1;
#X obj 809 314 phasor~ 240;
#X obj 904 314 phasor~ 12;
#X floatatom 929 287 5 0 0 0 - - - 0;
#X floatatom 751 291 5 0 0 0 - - - 0;
#X obj 824 455 *~ 0;
#X obj 1223 17 vsl 19 162 0 5 0 0 empty empty empty 0 -9 0 12 #fcfcfc #000000 #000000 0 1;
#X obj 1165 217 int;
#X obj 1165 241 * 12;
#X floatatom 1162 319 5 0 0 0 - - - 0;
#X obj 1165 295 line 0 100;
#X obj 1251 17 vsl 19 162 0 1 0 0 empty empty empty 0 -9 0 12 #fcfcfc #000000 #000000 0 1;
#X obj 1251 187 s \$0-disp_ball;
#X obj 869 452 r \$0-disp_ball;
#X obj 586 477 env~;
#X floatatom 586 501 5 0 0 0 - - - 0;
#X obj 565 447 /~ 10;
#X obj 1193 24 vsl 19 162 -0.1 0.1 0 0 empty empty empty 0 -9 0 12 #fcfcfc #000000 #000000 0 1;
#X obj 1162 342 +;
#X obj 1196 343 t b f;
#X obj 824 500 *~ 1;
#X obj 901 500 tgl 19 0 empty empty empty 0 -10 0 12 #fcfcfc #000000 #000000 0 1;
#X obj 858 499 sel 0;
#X msg 858 523 -1;
#X msg 894 524 1;
#X msg 1165 265 \$1 1;
#X obj 554 52 inlet~;
#X obj 566 423 hip~ 100;
#X obj 873 401 *~;
#X obj 809 401 *~;
#X floatatom 934 408 5 0 0 0 - - - 0;
#X obj 841 401 *~;
#X msg 1010 409 0.62;
#X obj 1014 384 loadbang;
#X obj 1061 63 loadbang;
#X msg 1041 95 0;
#X msg 1083 90 6;
#X floatatom 945 521 5 0 0 0 - - - 0;
#X msg 1065 135 0.35;
#X obj 101 101 scope3d;
#X connect 0 0 4 0;
#X connect 1 0 3 0;
#X connect 2 0 5 0;
#X connect 3 0 40 0;
#X connect 4 0 39 0;
#X connect 5 0 50 0;
#X connect 6 0 4 1;
#X connect 6 0 3 1;
#X connect 7 0 6 0;
#X connect 7 0 42 0;
#X connect 9 0 10 0;
#X connect 11 0 31 0;
#X connect 12 0 1 0;
#X connect 12 0 0 0;
#X connect 13 0 7 0;
#X connect 14 0 13 0;
#X connect 15 0 12 0;
#X connect 16 0 11 0;
#X connect 17 0 18 0;
#X connect 18 0 19 0;
#X connect 19 0 36 0;
#X connect 20 0 29 0;
#X connect 21 0 20 0;
#X connect 22 0 23 0;
#X connect 24 0 16 1;
#X connect 24 0 48 0;
#X connect 25 0 26 0;
#X connect 27 0 16 0;
#X connect 27 0 25 0;
#X connect 28 0 30 0;
#X connect 29 0 14 0;
#X connect 30 0 29 0;
#X connect 30 1 29 1;
#X connect 31 0 5 1;
#X connect 32 0 33 0;
#X connect 33 0 34 0;
#X connect 34 0 31 1;
#X connect 35 0 31 1;
#X connect 36 0 21 0;
#X connect 37 0 38 0;
#X connect 38 0 27 0;
#X connect 39 0 2 2;
#X connect 40 0 2 0;
#X connect 41 0 39 1;
#X connect 41 0 40 1;
#X connect 41 0 42 1;
#X connect 42 0 2 1;
#X connect 43 0 41 0;
#X connect 44 0 43 0;
#X connect 45 0 46 0;
#X connect 45 0 47 0;
#X connect 45 0 49 0;
#X connect 46 0 28 0;
#X connect 47 0 17 0;
#X connect 49 0 22 0;
#X coords 0 -1 1 1 142 142 2 100 100;
